<mxfile host="app.diagrams.net" modified="2024-02-03T22:26:10.012Z" agent="Mozilla/5.0 (Windows NT 10.0; Win64; x64) AppleWebKit/537.36 (KHTML, like Gecko) Chrome/121.0.0.0 Safari/537.36" etag="z1cH2FUwZPaHAWMCrkkh" version="22.1.18" type="device">
  <diagram id="C5RBs43oDa-KdzZeNtuy" name="Page-1">
    <mxGraphModel dx="1434" dy="746" grid="1" gridSize="10" guides="1" tooltips="1" connect="1" arrows="1" fold="1" page="1" pageScale="1" pageWidth="1169" pageHeight="827" math="0" shadow="0">
      <root>
        <mxCell id="WIyWlLk6GJQsqaUBKTNV-0" />
        <mxCell id="WIyWlLk6GJQsqaUBKTNV-1" parent="WIyWlLk6GJQsqaUBKTNV-0" />
        <mxCell id="19jjWzB2dqfbjUOQzjkO-24" value="Complex Representation as I(t) + jQ(t)" style="rounded=0;whiteSpace=wrap;html=1;fillColor=#f5f5f5;fontColor=#333333;strokeColor=#666666;verticalAlign=top;" vertex="1" parent="WIyWlLk6GJQsqaUBKTNV-1">
          <mxGeometry x="620" y="250" width="150" height="250" as="geometry" />
        </mxCell>
        <mxCell id="Sn4l5J6o_MFr1SAcCn65-19" style="edgeStyle=orthogonalEdgeStyle;rounded=0;orthogonalLoop=1;jettySize=auto;html=1;exitX=0;exitY=0.5;exitDx=0;exitDy=0;startArrow=classic;startFill=1;endArrow=none;endFill=0;" parent="WIyWlLk6GJQsqaUBKTNV-1" source="Sn4l5J6o_MFr1SAcCn65-1" edge="1">
          <mxGeometry relative="1" as="geometry">
            <mxPoint x="200" y="380" as="targetPoint" />
            <Array as="points">
              <mxPoint x="240" y="300" />
              <mxPoint x="240" y="380" />
              <mxPoint x="200" y="380" />
            </Array>
          </mxGeometry>
        </mxCell>
        <mxCell id="Sn4l5J6o_MFr1SAcCn65-1" value="" style="shape=sumEllipse;perimeter=ellipsePerimeter;whiteSpace=wrap;html=1;backgroundOutline=1;" parent="WIyWlLk6GJQsqaUBKTNV-1" vertex="1">
          <mxGeometry x="400" y="280" width="40" height="40" as="geometry" />
        </mxCell>
        <mxCell id="Sn4l5J6o_MFr1SAcCn65-20" value="r(t)" style="edgeStyle=orthogonalEdgeStyle;rounded=0;orthogonalLoop=1;jettySize=auto;html=1;exitX=0;exitY=0.5;exitDx=0;exitDy=0;startArrow=classic;startFill=1;endArrow=none;endFill=0;" parent="WIyWlLk6GJQsqaUBKTNV-1" source="Sn4l5J6o_MFr1SAcCn65-3" edge="1">
          <mxGeometry x="1" y="20" relative="1" as="geometry">
            <mxPoint x="200" y="380" as="targetPoint" />
            <Array as="points">
              <mxPoint x="240" y="460" />
              <mxPoint x="240" y="380" />
            </Array>
            <mxPoint x="-20" y="-20" as="offset" />
          </mxGeometry>
        </mxCell>
        <mxCell id="Sn4l5J6o_MFr1SAcCn65-3" value="" style="shape=sumEllipse;perimeter=ellipsePerimeter;whiteSpace=wrap;html=1;backgroundOutline=1;" parent="WIyWlLk6GJQsqaUBKTNV-1" vertex="1">
          <mxGeometry x="400" y="440" width="40" height="40" as="geometry" />
        </mxCell>
        <mxCell id="Sn4l5J6o_MFr1SAcCn65-4" style="edgeStyle=orthogonalEdgeStyle;rounded=0;orthogonalLoop=1;jettySize=auto;html=1;exitX=0.5;exitY=0;exitDx=0;exitDy=0;entryX=0.5;entryY=1;entryDx=0;entryDy=0;" parent="WIyWlLk6GJQsqaUBKTNV-1" source="Sn4l5J6o_MFr1SAcCn65-5" target="Sn4l5J6o_MFr1SAcCn65-1" edge="1">
          <mxGeometry relative="1" as="geometry" />
        </mxCell>
        <mxCell id="Sn4l5J6o_MFr1SAcCn65-5" value="0°" style="rounded=0;whiteSpace=wrap;html=1;" parent="WIyWlLk6GJQsqaUBKTNV-1" vertex="1">
          <mxGeometry x="400" y="340" width="40" height="20" as="geometry" />
        </mxCell>
        <mxCell id="Sn4l5J6o_MFr1SAcCn65-6" style="edgeStyle=orthogonalEdgeStyle;rounded=0;orthogonalLoop=1;jettySize=auto;html=1;exitX=0.5;exitY=1;exitDx=0;exitDy=0;entryX=0.5;entryY=0;entryDx=0;entryDy=0;" parent="WIyWlLk6GJQsqaUBKTNV-1" source="Sn4l5J6o_MFr1SAcCn65-7" target="Sn4l5J6o_MFr1SAcCn65-3" edge="1">
          <mxGeometry relative="1" as="geometry" />
        </mxCell>
        <mxCell id="Sn4l5J6o_MFr1SAcCn65-7" value="90°" style="rounded=0;whiteSpace=wrap;html=1;" parent="WIyWlLk6GJQsqaUBKTNV-1" vertex="1">
          <mxGeometry x="400" y="400" width="40" height="20" as="geometry" />
        </mxCell>
        <mxCell id="Sn4l5J6o_MFr1SAcCn65-17" style="edgeStyle=orthogonalEdgeStyle;rounded=0;orthogonalLoop=1;jettySize=auto;html=1;exitX=0;exitY=0.5;exitDx=0;exitDy=0;exitPerimeter=0;entryX=0.5;entryY=1;entryDx=0;entryDy=0;" parent="WIyWlLk6GJQsqaUBKTNV-1" source="Sn4l5J6o_MFr1SAcCn65-10" target="Sn4l5J6o_MFr1SAcCn65-5" edge="1">
          <mxGeometry relative="1" as="geometry" />
        </mxCell>
        <mxCell id="Sn4l5J6o_MFr1SAcCn65-18" style="edgeStyle=orthogonalEdgeStyle;rounded=0;orthogonalLoop=1;jettySize=auto;html=1;exitX=0;exitY=0.5;exitDx=0;exitDy=0;exitPerimeter=0;entryX=0.5;entryY=0;entryDx=0;entryDy=0;" parent="WIyWlLk6GJQsqaUBKTNV-1" source="Sn4l5J6o_MFr1SAcCn65-10" target="Sn4l5J6o_MFr1SAcCn65-7" edge="1">
          <mxGeometry relative="1" as="geometry">
            <mxPoint x="480" y="460" as="sourcePoint" />
          </mxGeometry>
        </mxCell>
        <mxCell id="Sn4l5J6o_MFr1SAcCn65-10" value="LO" style="pointerEvents=1;verticalLabelPosition=middle;shadow=0;dashed=0;align=left;html=1;verticalAlign=middle;shape=mxgraph.electrical.signal_sources.source;aspect=fixed;points=[[0.5,0,0],[1,0.5,0],[0.5,1,0],[0,0.5,0]];elSignalType=ac;labelPosition=right;" parent="WIyWlLk6GJQsqaUBKTNV-1" vertex="1">
          <mxGeometry x="480" y="360" width="40" height="40" as="geometry" />
        </mxCell>
        <mxCell id="Sn4l5J6o_MFr1SAcCn65-13" value="I(t)" style="edgeStyle=orthogonalEdgeStyle;rounded=0;orthogonalLoop=1;jettySize=auto;html=1;exitX=1;exitY=0.5;exitDx=0;exitDy=0;" parent="WIyWlLk6GJQsqaUBKTNV-1" source="Sn4l5J6o_MFr1SAcCn65-1" edge="1">
          <mxGeometry x="1" y="-10" relative="1" as="geometry">
            <mxPoint x="570" y="300" as="targetPoint" />
            <mxPoint x="9" y="-10" as="offset" />
          </mxGeometry>
        </mxCell>
        <mxCell id="Sn4l5J6o_MFr1SAcCn65-14" value="Q(t)" style="edgeStyle=orthogonalEdgeStyle;rounded=0;orthogonalLoop=1;jettySize=auto;html=1;exitX=1;exitY=0.5;exitDx=0;exitDy=0;" parent="WIyWlLk6GJQsqaUBKTNV-1" source="Sn4l5J6o_MFr1SAcCn65-3" edge="1">
          <mxGeometry x="1" y="-10" relative="1" as="geometry">
            <mxPoint x="570" y="460" as="targetPoint" />
            <mxPoint x="9" y="-10" as="offset" />
          </mxGeometry>
        </mxCell>
        <mxCell id="Sn4l5J6o_MFr1SAcCn65-15" value="cos(2πf&lt;sub&gt;c&lt;/sub&gt;t)" style="text;strokeColor=none;align=center;fillColor=none;html=1;verticalAlign=middle;whiteSpace=wrap;rounded=0;" parent="WIyWlLk6GJQsqaUBKTNV-1" vertex="1">
          <mxGeometry x="430" y="320" width="60" height="30" as="geometry" />
        </mxCell>
        <mxCell id="Sn4l5J6o_MFr1SAcCn65-16" value="sin(2πf&lt;sub&gt;c&lt;/sub&gt;t)" style="text;strokeColor=none;align=center;fillColor=none;html=1;verticalAlign=middle;whiteSpace=wrap;rounded=0;" parent="WIyWlLk6GJQsqaUBKTNV-1" vertex="1">
          <mxGeometry x="430" y="420" width="60" height="30" as="geometry" />
        </mxCell>
        <mxCell id="19jjWzB2dqfbjUOQzjkO-10" style="edgeStyle=none;rounded=0;orthogonalLoop=1;jettySize=auto;html=1;exitX=0.75;exitY=1;exitDx=0;exitDy=0;strokeColor=#7EA6E0;" edge="1" parent="WIyWlLk6GJQsqaUBKTNV-1" source="19jjWzB2dqfbjUOQzjkO-1">
          <mxGeometry relative="1" as="geometry">
            <mxPoint x="220" y="380" as="targetPoint" />
          </mxGeometry>
        </mxCell>
        <mxCell id="19jjWzB2dqfbjUOQzjkO-1" value="" style="shape=image;verticalLabelPosition=bottom;labelBackgroundColor=default;verticalAlign=top;aspect=fixed;imageAspect=0;image=data:image/svg+xml,%3C%3Fxml%20version%3D%221.0%22%20encoding%3D%22utf-8%22%20standalone%3D%22no%22%3F%3E%0A%3C!DOCTYPE%20svg%20PUBLIC%20%22-%2F%2FW3C%2F%2FDTD%20SVG%201.1%2F%2FEN%22%0A%20%20%22http%3A%2F%2Fwww.w3.org%2FGraphics%2FSVG%2F1.1%2FDTD%2Fsvg11.dtd%22%3E%0A%3Csvg%20xmlns%3Axlink%3D%22http%3A%2F%2Fwww.w3.org%2F1999%2Fxlink%22%20width%3D%22280.512pt%22%20height%3D%22280.512pt%22%20viewBox%3D%220%200%20280.512%20280.512%22%20xmlns%3D%22http%3A%2F%2Fwww.w3.org%2F2000%2Fsvg%22%20version%3D%221.1%22%3E%0A%20%3Cmetadata%3E%0A%20%20%3Crdf%3ARDF%20xmlns%3Adc%3D%22http%3A%2F%2Fpurl.org%2Fdc%2Felements%2F1.1%2F%22%20xmlns%3Acc%3D%22http%3A%2F%2Fcreativecommons.org%2Fns%23%22%20xmlns%3Ardf%3D%22http%3A%2F%2Fwww.w3.org%2F1999%2F02%2F22-rdf-syntax-ns%23%22%3E%0A%20%20%20%3Ccc%3AWork%3E%0A%20%20%20%20%3Cdc%3Atype%20rdf%3Aresource%3D%22http%3A%2F%2Fpurl.org%2Fdc%2Fdcmitype%2FStillImage%22%2F%3E%0A%20%20%20%20%3Cdc%3Adate%3E2024-02-03T16%3A49%3A38.962220%3C%2Fdc%3Adate%3E%0A%20%20%20%20%3Cdc%3Aformat%3Eimage%2Fsvg%2Bxml%3C%2Fdc%3Aformat%3E%0A%20%20%20%20%3Cdc%3Acreator%3E%0A%20%20%20%20%20%3Ccc%3AAgent%3E%0A%20%20%20%20%20%20%3Cdc%3Atitle%3EMatplotlib%20v3.8.0%2C%20https%3A%2F%2Fmatplotlib.org%2F%3C%2Fdc%3Atitle%3E%0A%20%20%20%20%20%3C%2Fcc%3AAgent%3E%0A%20%20%20%20%3C%2Fdc%3Acreator%3E%0A%20%20%20%3C%2Fcc%3AWork%3E%0A%20%20%3C%2Frdf%3ARDF%3E%0A%20%3C%2Fmetadata%3E%0A%20%3Cdefs%3E%0A%20%20%3Cstyle%20type%3D%22text%2Fcss%22%3E*%7Bstroke-linejoin%3A%20round%3B%20stroke-linecap%3A%20butt%7D%3C%2Fstyle%3E%0A%20%3C%2Fdefs%3E%0A%20%3Cg%20id%3D%22figure_1%22%3E%0A%20%20%3Cg%20id%3D%22patch_1%22%3E%0A%20%20%20%3Cpath%20d%3D%22M%200%20280.512%20%0AL%20280.512%20280.512%20%0AL%20280.512%200%20%0AL%200%200%20%0Az%0A%22%20style%3D%22fill%3A%20%23ffffff%22%2F%3E%0A%20%20%3C%2Fg%3E%0A%20%20%3Cg%20id%3D%22patch_2%22%3E%0A%20%20%20%3Cpath%20d%3D%22M%207.2%20273.312%20%0AL%20273.312%20273.312%20%0AL%20273.312%207.2%20%0AL%207.2%207.2%20%0Az%0A%22%20style%3D%22fill%3A%20%23ffffff%22%2F%3E%0A%20%20%3C%2Fg%3E%0A%20%20%3Cg%20id%3D%22axes_1%22%3E%0A%20%20%20%3Cg%20id%3D%22line2d_1%22%3E%0A%20%20%20%20%3Cpath%20d%3D%22M%2074.386458%20116.606886%20%0AL%20216.842635%20157.730442%20%0A%22%20clip-path%3D%22url(%23p11b135d4d8)%22%20style%3D%22fill%3A%20none%3B%20stroke%3A%20%23000000%3B%20stroke-width%3A%200.5%3B%20stroke-linecap%3A%20square%22%2F%3E%0A%20%20%20%3C%2Fg%3E%0A%20%20%20%3Cg%20id%3D%22line2d_2%22%3E%0A%20%20%20%20%3Cpath%20d%3D%22M%20100.913504%20173.845814%20%0AL%20183.261512%20102.530347%20%0A%22%20clip-path%3D%22url(%23p11b135d4d8)%22%20style%3D%22fill%3A%20none%3B%20stroke%3A%20%23000000%3B%20stroke-width%3A%200.5%3B%20stroke-linecap%3A%20square%22%2F%3E%0A%20%20%20%3C%2Fg%3E%0A%20%20%20%3Cg%20id%3D%22line2d_3%22%3E%0A%20%20%20%20%3Cpath%20d%3D%22M%20143.852108%20188.928216%20%0AL%20143.852108%2082.102444%20%0A%22%20clip-path%3D%22url(%23p11b135d4d8)%22%20style%3D%22fill%3A%20none%3B%20stroke%3A%20%23000000%3B%20stroke-width%3A%200.5%3B%20stroke-linecap%3A%20square%22%2F%3E%0A%20%20%20%3C%2Fg%3E%0A%20%20%20%3Cg%20id%3D%22line2d_4%22%3E%0A%20%20%20%20%3Cpath%20d%3D%22M%2074.386458%20116.606886%20%0AL%20107.3064%20126.110055%20%0AL%20128.068266%20109.161012%20%0AL%20124.057594%20130.945708%20%0AL%20163.922816%20142.453806%20%0AL%20200.78459%20129.569312%20%0AL%20181.350517%20147.48475%20%0AL%20216.692958%20157.687234%20%0AL%20216.692958%20157.687234%20%0A%22%20clip-path%3D%22url(%23p11b135d4d8)%22%20style%3D%22fill%3A%20none%3B%20stroke%3A%20%230000ff%3B%20stroke-width%3A%201.5%3B%20stroke-linecap%3A%20square%22%2F%3E%0A%20%20%20%3C%2Fg%3E%0A%20%20%20%3Cg%20id%3D%22text_1%22%3E%0A%20%20%20%20%3C!--%20%24f%24%20--%3E%0A%20%20%20%20%3Cg%20transform%3D%22translate(216.842635%20157.730442)%20scale(0.1%20-0.1)%22%3E%0A%20%20%20%20%20%3Cdefs%3E%0A%20%20%20%20%20%20%3Cpath%20id%3D%22DejaVuSans-Oblique-66%22%20d%3D%22M%203059%204863%20%0AL%202969%204384%20%0AL%202419%204384%20%0AQ%202106%204384%201964%204261%20%0AQ%201822%204138%201753%203809%20%0AL%201691%203500%20%0AL%202638%203500%20%0AL%202553%203053%20%0AL%201606%203053%20%0AL%201013%200%20%0AL%20434%200%20%0AL%201031%203053%20%0AL%20481%203053%20%0AL%20563%203500%20%0AL%201113%203500%20%0AL%201159%203744%20%0AQ%201278%204363%201576%204613%20%0AQ%201875%204863%202516%204863%20%0AL%203059%204863%20%0Az%0A%22%20transform%3D%22scale(0.015625)%22%2F%3E%0A%20%20%20%20%20%3C%2Fdefs%3E%0A%20%20%20%20%20%3Cuse%20xlink%3Ahref%3D%22%23DejaVuSans-Oblique-66%22%20transform%3D%22translate(0%200.015625)%22%2F%3E%0A%20%20%20%20%3C%2Fg%3E%0A%20%20%20%3C%2Fg%3E%0A%20%20%20%3Cg%20id%3D%22text_2%22%3E%0A%20%20%20%20%3C!--%20%24Re%24%20--%3E%0A%20%20%20%20%3Cg%20transform%3D%22translate(183.261512%20102.530347)%20scale(0.1%20-0.1)%22%3E%0A%20%20%20%20%20%3Cdefs%3E%0A%20%20%20%20%20%20%3Cpath%20id%3D%22DejaVuSans-Oblique-52%22%20d%3D%22M%201613%204147%20%0AL%201294%202491%20%0AL%202106%202491%20%0AQ%202584%202491%202879%202755%20%0AQ%203175%203019%203175%203444%20%0AQ%203175%203784%202976%203965%20%0AQ%202778%204147%202406%204147%20%0AL%201613%204147%20%0Az%0AM%202772%202241%20%0AQ%202972%202194%203105%202009%20%0AQ%203238%201825%203413%201275%20%0AL%203809%200%20%0AL%203144%200%20%0AL%202778%201197%20%0AQ%202638%201659%202453%201815%20%0AQ%202269%201972%201888%201972%20%0AL%201191%201972%20%0AL%20806%200%20%0AL%20172%200%20%0AL%201081%204666%20%0AL%202503%204666%20%0AQ%203150%204666%203495%204373%20%0AQ%203841%204081%203841%203531%20%0AQ%203841%203044%203547%202687%20%0AQ%203253%202331%202772%202241%20%0Az%0A%22%20transform%3D%22scale(0.015625)%22%2F%3E%0A%20%20%20%20%20%20%3Cpath%20id%3D%22DejaVuSans-Oblique-65%22%20d%3D%22M%203078%202063%20%0AQ%203088%202113%203092%202166%20%0AQ%203097%202219%203097%202272%20%0AQ%203097%202653%202873%202875%20%0AQ%202650%203097%202266%203097%20%0AQ%201838%203097%201509%202826%20%0AQ%201181%202556%201013%202059%20%0AL%203078%202063%20%0Az%0AM%203578%201613%20%0AL%20903%201613%20%0AQ%20884%201494%20878%201425%20%0AQ%20872%201356%20872%201306%20%0AQ%20872%20872%201139%20634%20%0AQ%201406%20397%201894%20397%20%0AQ%202269%20397%202603%20481%20%0AQ%202938%20566%203225%20728%20%0AL%203116%20159%20%0AQ%202806%2034%202476%20-28%20%0AQ%202147%20-91%201806%20-91%20%0AQ%201078%20-91%20686%20257%20%0AQ%20294%20606%20294%201247%20%0AQ%20294%201794%20489%202264%20%0AQ%20684%202734%201063%203103%20%0AQ%201306%203334%201642%203459%20%0AQ%201978%203584%202356%203584%20%0AQ%202950%203584%203301%203228%20%0AQ%203653%202872%203653%202272%20%0AQ%203653%202128%203634%201964%20%0AQ%203616%201800%203578%201613%20%0Az%0A%22%20transform%3D%22scale(0.015625)%22%2F%3E%0A%20%20%20%20%20%3C%2Fdefs%3E%0A%20%20%20%20%20%3Cuse%20xlink%3Ahref%3D%22%23DejaVuSans-Oblique-52%22%20transform%3D%22translate(0%200.09375)%22%2F%3E%0A%20%20%20%20%20%3Cuse%20xlink%3Ahref%3D%22%23DejaVuSans-Oblique-65%22%20transform%3D%22translate(69.482422%200.09375)%22%2F%3E%0A%20%20%20%20%3C%2Fg%3E%0A%20%20%20%3C%2Fg%3E%0A%20%20%20%3Cg%20id%3D%22text_3%22%3E%0A%20%20%20%20%3C!--%20%24Im%24%20--%3E%0A%20%20%20%20%3Cg%20transform%3D%22translate(143.852108%2082.102444)%20scale(0.1%20-0.1)%22%3E%0A%20%20%20%20%20%3Cdefs%3E%0A%20%20%20%20%20%20%3Cpath%20id%3D%22DejaVuSans-Oblique-49%22%20d%3D%22M%201081%204666%20%0AL%201716%204666%20%0AL%20806%200%20%0AL%20172%200%20%0AL%201081%204666%20%0Az%0A%22%20transform%3D%22scale(0.015625)%22%2F%3E%0A%20%20%20%20%20%20%3Cpath%20id%3D%22DejaVuSans-Oblique-6d%22%20d%3D%22M%205747%202113%20%0AL%205338%200%20%0AL%204763%200%20%0AL%205166%202094%20%0AQ%205191%202228%205203%202325%20%0AQ%205216%202422%205216%202491%20%0AQ%205216%202772%205059%202928%20%0AQ%204903%203084%204622%203084%20%0AQ%204203%203084%203875%202770%20%0AQ%203547%202456%203450%201953%20%0AL%203066%200%20%0AL%202491%200%20%0AL%202900%202094%20%0AQ%202925%202209%202937%202307%20%0AQ%202950%202406%202950%202484%20%0AQ%202950%202769%202794%202926%20%0AQ%202638%203084%202363%203084%20%0AQ%201938%203084%201609%202770%20%0AQ%201281%202456%201184%201953%20%0AL%20800%200%20%0AL%20225%200%20%0AL%20909%203500%20%0AL%201484%203500%20%0AL%201375%202956%20%0AQ%201609%203263%201923%203423%20%0AQ%202238%203584%202597%203584%20%0AQ%202978%203584%203223%203384%20%0AQ%203469%203184%203519%202828%20%0AQ%203781%203197%204126%203390%20%0AQ%204472%203584%204856%203584%20%0AQ%205306%203584%205551%203325%20%0AQ%205797%203066%205797%202591%20%0AQ%205797%202488%205784%202364%20%0AQ%205772%202241%205747%202113%20%0Az%0A%22%20transform%3D%22scale(0.015625)%22%2F%3E%0A%20%20%20%20%20%3C%2Fdefs%3E%0A%20%20%20%20%20%3Cuse%20xlink%3Ahref%3D%22%23DejaVuSans-Oblique-49%22%20transform%3D%22translate(0%200.09375)%22%2F%3E%0A%20%20%20%20%20%3Cuse%20xlink%3Ahref%3D%22%23DejaVuSans-Oblique-6d%22%20transform%3D%22translate(29.492188%200.09375)%22%2F%3E%0A%20%20%20%20%3C%2Fg%3E%0A%20%20%20%3C%2Fg%3E%0A%20%20%3C%2Fg%3E%0A%20%3C%2Fg%3E%0A%20%3Cdefs%3E%0A%20%20%3CclipPath%20id%3D%22p11b135d4d8%22%3E%0A%20%20%20%3Crect%20x%3D%227.2%22%20y%3D%227.2%22%20width%3D%22266.112%22%20height%3D%22266.112%22%2F%3E%0A%20%20%3C%2FclipPath%3E%0A%20%3C%2Fdefs%3E%0A%3C%2Fsvg%3E;clipPath=inset(25.67% 20.33% 32% 26%);imageBorder=#7EA6E0;" vertex="1" parent="WIyWlLk6GJQsqaUBKTNV-1">
          <mxGeometry x="50" y="220" width="152.12" height="120" as="geometry" />
        </mxCell>
        <mxCell id="19jjWzB2dqfbjUOQzjkO-9" style="edgeStyle=none;rounded=0;orthogonalLoop=1;jettySize=auto;html=1;exitX=0.5;exitY=1;exitDx=0;exitDy=0;strokeColor=#7EA6E0;" edge="1" parent="WIyWlLk6GJQsqaUBKTNV-1" source="19jjWzB2dqfbjUOQzjkO-2">
          <mxGeometry relative="1" as="geometry">
            <mxPoint x="420" y="330" as="targetPoint" />
          </mxGeometry>
        </mxCell>
        <mxCell id="19jjWzB2dqfbjUOQzjkO-2" value="" style="shape=image;verticalLabelPosition=bottom;labelBackgroundColor=default;verticalAlign=top;aspect=fixed;imageAspect=0;image=data:image/svg+xml,%3C%3Fxml%20version%3D%221.0%22%20encoding%3D%22utf-8%22%20standalone%3D%22no%22%3F%3E%0A%3C!DOCTYPE%20svg%20PUBLIC%20%22-%2F%2FW3C%2F%2FDTD%20SVG%201.1%2F%2FEN%22%0A%20%20%22http%3A%2F%2Fwww.w3.org%2FGraphics%2FSVG%2F1.1%2FDTD%2Fsvg11.dtd%22%3E%0A%3Csvg%20xmlns%3Axlink%3D%22http%3A%2F%2Fwww.w3.org%2F1999%2Fxlink%22%20width%3D%22280.512pt%22%20height%3D%22280.512pt%22%20viewBox%3D%220%200%20280.512%20280.512%22%20xmlns%3D%22http%3A%2F%2Fwww.w3.org%2F2000%2Fsvg%22%20version%3D%221.1%22%3E%0A%20%3Cmetadata%3E%0A%20%20%3Crdf%3ARDF%20xmlns%3Adc%3D%22http%3A%2F%2Fpurl.org%2Fdc%2Felements%2F1.1%2F%22%20xmlns%3Acc%3D%22http%3A%2F%2Fcreativecommons.org%2Fns%23%22%20xmlns%3Ardf%3D%22http%3A%2F%2Fwww.w3.org%2F1999%2F02%2F22-rdf-syntax-ns%23%22%3E%0A%20%20%20%3Ccc%3AWork%3E%0A%20%20%20%20%3Cdc%3Atype%20rdf%3Aresource%3D%22http%3A%2F%2Fpurl.org%2Fdc%2Fdcmitype%2FStillImage%22%2F%3E%0A%20%20%20%20%3Cdc%3Adate%3E2024-02-03T16%3A49%3A38.991142%3C%2Fdc%3Adate%3E%0A%20%20%20%20%3Cdc%3Aformat%3Eimage%2Fsvg%2Bxml%3C%2Fdc%3Aformat%3E%0A%20%20%20%20%3Cdc%3Acreator%3E%0A%20%20%20%20%20%3Ccc%3AAgent%3E%0A%20%20%20%20%20%20%3Cdc%3Atitle%3EMatplotlib%20v3.8.0%2C%20https%3A%2F%2Fmatplotlib.org%2F%3C%2Fdc%3Atitle%3E%0A%20%20%20%20%20%3C%2Fcc%3AAgent%3E%0A%20%20%20%20%3C%2Fdc%3Acreator%3E%0A%20%20%20%3C%2Fcc%3AWork%3E%0A%20%20%3C%2Frdf%3ARDF%3E%0A%20%3C%2Fmetadata%3E%0A%20%3Cdefs%3E%0A%20%20%3Cstyle%20type%3D%22text%2Fcss%22%3E*%7Bstroke-linejoin%3A%20round%3B%20stroke-linecap%3A%20butt%7D%3C%2Fstyle%3E%0A%20%3C%2Fdefs%3E%0A%20%3Cg%20id%3D%22figure_1%22%3E%0A%20%20%3Cg%20id%3D%22patch_1%22%3E%0A%20%20%20%3Cpath%20d%3D%22M%200%20280.512%20%0AL%20280.512%20280.512%20%0AL%20280.512%200%20%0AL%200%200%20%0Az%0A%22%20style%3D%22fill%3A%20%23ffffff%22%2F%3E%0A%20%20%3C%2Fg%3E%0A%20%20%3Cg%20id%3D%22patch_2%22%3E%0A%20%20%20%3Cpath%20d%3D%22M%207.2%20273.312%20%0AL%20273.312%20273.312%20%0AL%20273.312%207.2%20%0AL%207.2%207.2%20%0Az%0A%22%20style%3D%22fill%3A%20%23ffffff%22%2F%3E%0A%20%20%3C%2Fg%3E%0A%20%20%3Cg%20id%3D%22axes_1%22%3E%0A%20%20%20%3Cg%20id%3D%22line2d_1%22%3E%0A%20%20%20%20%3Cpath%20d%3D%22M%2074.386458%20116.606886%20%0AL%20216.842635%20157.730442%20%0A%22%20clip-path%3D%22url(%23p902a2c355c)%22%20style%3D%22fill%3A%20none%3B%20stroke%3A%20%23000000%3B%20stroke-width%3A%200.5%3B%20stroke-linecap%3A%20square%22%2F%3E%0A%20%20%20%3C%2Fg%3E%0A%20%20%20%3Cg%20id%3D%22line2d_2%22%3E%0A%20%20%20%20%3Cpath%20d%3D%22M%20100.913504%20173.845814%20%0AL%20183.261512%20102.530347%20%0A%22%20clip-path%3D%22url(%23p902a2c355c)%22%20style%3D%22fill%3A%20none%3B%20stroke%3A%20%23000000%3B%20stroke-width%3A%200.5%3B%20stroke-linecap%3A%20square%22%2F%3E%0A%20%20%20%3C%2Fg%3E%0A%20%20%20%3Cg%20id%3D%22line2d_3%22%3E%0A%20%20%20%20%3Cpath%20d%3D%22M%20143.852108%20188.928216%20%0AL%20143.852108%2082.102444%20%0A%22%20clip-path%3D%22url(%23p902a2c355c)%22%20style%3D%22fill%3A%20none%3B%20stroke%3A%20%23000000%3B%20stroke-width%3A%200.5%3B%20stroke-linecap%3A%20square%22%2F%3E%0A%20%20%20%3C%2Fg%3E%0A%20%20%20%3Cg%20id%3D%22line2d_4%22%3E%0A%20%20%20%20%3Cpath%20d%3D%22M%2074.386458%20116.606886%20%0AL%20115.517787%20128.480478%20%0AL%20136.168211%20111.434313%20%0AL%20115.796971%20128.561071%20%0AL%20172.465312%20144.919812%20%0AL%20192.316243%20127.192616%20%0AL%20172.755771%20145.003661%20%0AL%20216.692958%20157.687234%20%0AL%20216.692958%20157.687234%20%0A%22%20clip-path%3D%22url(%23p902a2c355c)%22%20style%3D%22fill%3A%20none%3B%20stroke%3A%20%230000ff%3B%20stroke-width%3A%201.5%3B%20stroke-linecap%3A%20square%22%2F%3E%0A%20%20%20%3C%2Fg%3E%0A%20%20%20%3Cg%20id%3D%22text_1%22%3E%0A%20%20%20%20%3C!--%20%24f%24%20--%3E%0A%20%20%20%20%3Cg%20transform%3D%22translate(216.842635%20157.730442)%20scale(0.1%20-0.1)%22%3E%0A%20%20%20%20%20%3Cdefs%3E%0A%20%20%20%20%20%20%3Cpath%20id%3D%22DejaVuSans-Oblique-66%22%20d%3D%22M%203059%204863%20%0AL%202969%204384%20%0AL%202419%204384%20%0AQ%202106%204384%201964%204261%20%0AQ%201822%204138%201753%203809%20%0AL%201691%203500%20%0AL%202638%203500%20%0AL%202553%203053%20%0AL%201606%203053%20%0AL%201013%200%20%0AL%20434%200%20%0AL%201031%203053%20%0AL%20481%203053%20%0AL%20563%203500%20%0AL%201113%203500%20%0AL%201159%203744%20%0AQ%201278%204363%201576%204613%20%0AQ%201875%204863%202516%204863%20%0AL%203059%204863%20%0Az%0A%22%20transform%3D%22scale(0.015625)%22%2F%3E%0A%20%20%20%20%20%3C%2Fdefs%3E%0A%20%20%20%20%20%3Cuse%20xlink%3Ahref%3D%22%23DejaVuSans-Oblique-66%22%20transform%3D%22translate(0%200.015625)%22%2F%3E%0A%20%20%20%20%3C%2Fg%3E%0A%20%20%20%3C%2Fg%3E%0A%20%20%20%3Cg%20id%3D%22text_2%22%3E%0A%20%20%20%20%3C!--%20%24Re%24%20--%3E%0A%20%20%20%20%3Cg%20transform%3D%22translate(183.261512%20102.530347)%20scale(0.1%20-0.1)%22%3E%0A%20%20%20%20%20%3Cdefs%3E%0A%20%20%20%20%20%20%3Cpath%20id%3D%22DejaVuSans-Oblique-52%22%20d%3D%22M%201613%204147%20%0AL%201294%202491%20%0AL%202106%202491%20%0AQ%202584%202491%202879%202755%20%0AQ%203175%203019%203175%203444%20%0AQ%203175%203784%202976%203965%20%0AQ%202778%204147%202406%204147%20%0AL%201613%204147%20%0Az%0AM%202772%202241%20%0AQ%202972%202194%203105%202009%20%0AQ%203238%201825%203413%201275%20%0AL%203809%200%20%0AL%203144%200%20%0AL%202778%201197%20%0AQ%202638%201659%202453%201815%20%0AQ%202269%201972%201888%201972%20%0AL%201191%201972%20%0AL%20806%200%20%0AL%20172%200%20%0AL%201081%204666%20%0AL%202503%204666%20%0AQ%203150%204666%203495%204373%20%0AQ%203841%204081%203841%203531%20%0AQ%203841%203044%203547%202687%20%0AQ%203253%202331%202772%202241%20%0Az%0A%22%20transform%3D%22scale(0.015625)%22%2F%3E%0A%20%20%20%20%20%20%3Cpath%20id%3D%22DejaVuSans-Oblique-65%22%20d%3D%22M%203078%202063%20%0AQ%203088%202113%203092%202166%20%0AQ%203097%202219%203097%202272%20%0AQ%203097%202653%202873%202875%20%0AQ%202650%203097%202266%203097%20%0AQ%201838%203097%201509%202826%20%0AQ%201181%202556%201013%202059%20%0AL%203078%202063%20%0Az%0AM%203578%201613%20%0AL%20903%201613%20%0AQ%20884%201494%20878%201425%20%0AQ%20872%201356%20872%201306%20%0AQ%20872%20872%201139%20634%20%0AQ%201406%20397%201894%20397%20%0AQ%202269%20397%202603%20481%20%0AQ%202938%20566%203225%20728%20%0AL%203116%20159%20%0AQ%202806%2034%202476%20-28%20%0AQ%202147%20-91%201806%20-91%20%0AQ%201078%20-91%20686%20257%20%0AQ%20294%20606%20294%201247%20%0AQ%20294%201794%20489%202264%20%0AQ%20684%202734%201063%203103%20%0AQ%201306%203334%201642%203459%20%0AQ%201978%203584%202356%203584%20%0AQ%202950%203584%203301%203228%20%0AQ%203653%202872%203653%202272%20%0AQ%203653%202128%203634%201964%20%0AQ%203616%201800%203578%201613%20%0Az%0A%22%20transform%3D%22scale(0.015625)%22%2F%3E%0A%20%20%20%20%20%3C%2Fdefs%3E%0A%20%20%20%20%20%3Cuse%20xlink%3Ahref%3D%22%23DejaVuSans-Oblique-52%22%20transform%3D%22translate(0%200.09375)%22%2F%3E%0A%20%20%20%20%20%3Cuse%20xlink%3Ahref%3D%22%23DejaVuSans-Oblique-65%22%20transform%3D%22translate(69.482422%200.09375)%22%2F%3E%0A%20%20%20%20%3C%2Fg%3E%0A%20%20%20%3C%2Fg%3E%0A%20%20%20%3Cg%20id%3D%22text_3%22%3E%0A%20%20%20%20%3C!--%20%24Im%24%20--%3E%0A%20%20%20%20%3Cg%20transform%3D%22translate(143.852108%2082.102444)%20scale(0.1%20-0.1)%22%3E%0A%20%20%20%20%20%3Cdefs%3E%0A%20%20%20%20%20%20%3Cpath%20id%3D%22DejaVuSans-Oblique-49%22%20d%3D%22M%201081%204666%20%0AL%201716%204666%20%0AL%20806%200%20%0AL%20172%200%20%0AL%201081%204666%20%0Az%0A%22%20transform%3D%22scale(0.015625)%22%2F%3E%0A%20%20%20%20%20%20%3Cpath%20id%3D%22DejaVuSans-Oblique-6d%22%20d%3D%22M%205747%202113%20%0AL%205338%200%20%0AL%204763%200%20%0AL%205166%202094%20%0AQ%205191%202228%205203%202325%20%0AQ%205216%202422%205216%202491%20%0AQ%205216%202772%205059%202928%20%0AQ%204903%203084%204622%203084%20%0AQ%204203%203084%203875%202770%20%0AQ%203547%202456%203450%201953%20%0AL%203066%200%20%0AL%202491%200%20%0AL%202900%202094%20%0AQ%202925%202209%202937%202307%20%0AQ%202950%202406%202950%202484%20%0AQ%202950%202769%202794%202926%20%0AQ%202638%203084%202363%203084%20%0AQ%201938%203084%201609%202770%20%0AQ%201281%202456%201184%201953%20%0AL%20800%200%20%0AL%20225%200%20%0AL%20909%203500%20%0AL%201484%203500%20%0AL%201375%202956%20%0AQ%201609%203263%201923%203423%20%0AQ%202238%203584%202597%203584%20%0AQ%202978%203584%203223%203384%20%0AQ%203469%203184%203519%202828%20%0AQ%203781%203197%204126%203390%20%0AQ%204472%203584%204856%203584%20%0AQ%205306%203584%205551%203325%20%0AQ%205797%203066%205797%202591%20%0AQ%205797%202488%205784%202364%20%0AQ%205772%202241%205747%202113%20%0Az%0A%22%20transform%3D%22scale(0.015625)%22%2F%3E%0A%20%20%20%20%20%3C%2Fdefs%3E%0A%20%20%20%20%20%3Cuse%20xlink%3Ahref%3D%22%23DejaVuSans-Oblique-49%22%20transform%3D%22translate(0%200.09375)%22%2F%3E%0A%20%20%20%20%20%3Cuse%20xlink%3Ahref%3D%22%23DejaVuSans-Oblique-6d%22%20transform%3D%22translate(29.492188%200.09375)%22%2F%3E%0A%20%20%20%20%3C%2Fg%3E%0A%20%20%20%3C%2Fg%3E%0A%20%20%3C%2Fg%3E%0A%20%3C%2Fg%3E%0A%20%3Cdefs%3E%0A%20%20%3CclipPath%20id%3D%22p902a2c355c%22%3E%0A%20%20%20%3Crect%20x%3D%227.2%22%20y%3D%227.2%22%20width%3D%22266.112%22%20height%3D%22266.112%22%2F%3E%0A%20%20%3C%2FclipPath%3E%0A%20%3C%2Fdefs%3E%0A%3C%2Fsvg%3E;clipPath=inset(26% 20.67% 32.33% 25.67%);imageBorder=#7EA6E0;perimeterSpacing=0;" vertex="1" parent="WIyWlLk6GJQsqaUBKTNV-1">
          <mxGeometry x="239.19" y="170" width="154.56" height="120" as="geometry" />
        </mxCell>
        <mxCell id="19jjWzB2dqfbjUOQzjkO-11" style="edgeStyle=none;rounded=0;orthogonalLoop=1;jettySize=auto;html=1;exitX=0.5;exitY=0;exitDx=0;exitDy=0;strokeColor=#7EA6E0;" edge="1" parent="WIyWlLk6GJQsqaUBKTNV-1" source="19jjWzB2dqfbjUOQzjkO-3">
          <mxGeometry relative="1" as="geometry">
            <mxPoint x="420" y="430" as="targetPoint" />
          </mxGeometry>
        </mxCell>
        <mxCell id="19jjWzB2dqfbjUOQzjkO-3" value="" style="shape=image;verticalLabelPosition=bottom;labelBackgroundColor=default;verticalAlign=top;aspect=fixed;imageAspect=0;image=data:image/svg+xml,%3C%3Fxml%20version%3D%221.0%22%20encoding%3D%22utf-8%22%20standalone%3D%22no%22%3F%3E%0A%3C!DOCTYPE%20svg%20PUBLIC%20%22-%2F%2FW3C%2F%2FDTD%20SVG%201.1%2F%2FEN%22%0A%20%20%22http%3A%2F%2Fwww.w3.org%2FGraphics%2FSVG%2F1.1%2FDTD%2Fsvg11.dtd%22%3E%0A%3Csvg%20xmlns%3Axlink%3D%22http%3A%2F%2Fwww.w3.org%2F1999%2Fxlink%22%20width%3D%22280.512pt%22%20height%3D%22280.512pt%22%20viewBox%3D%220%200%20280.512%20280.512%22%20xmlns%3D%22http%3A%2F%2Fwww.w3.org%2F2000%2Fsvg%22%20version%3D%221.1%22%3E%0A%20%3Cmetadata%3E%0A%20%20%3Crdf%3ARDF%20xmlns%3Adc%3D%22http%3A%2F%2Fpurl.org%2Fdc%2Felements%2F1.1%2F%22%20xmlns%3Acc%3D%22http%3A%2F%2Fcreativecommons.org%2Fns%23%22%20xmlns%3Ardf%3D%22http%3A%2F%2Fwww.w3.org%2F1999%2F02%2F22-rdf-syntax-ns%23%22%3E%0A%20%20%20%3Ccc%3AWork%3E%0A%20%20%20%20%3Cdc%3Atype%20rdf%3Aresource%3D%22http%3A%2F%2Fpurl.org%2Fdc%2Fdcmitype%2FStillImage%22%2F%3E%0A%20%20%20%20%3Cdc%3Adate%3E2024-02-03T16%3A49%3A39.022059%3C%2Fdc%3Adate%3E%0A%20%20%20%20%3Cdc%3Aformat%3Eimage%2Fsvg%2Bxml%3C%2Fdc%3Aformat%3E%0A%20%20%20%20%3Cdc%3Acreator%3E%0A%20%20%20%20%20%3Ccc%3AAgent%3E%0A%20%20%20%20%20%20%3Cdc%3Atitle%3EMatplotlib%20v3.8.0%2C%20https%3A%2F%2Fmatplotlib.org%2F%3C%2Fdc%3Atitle%3E%0A%20%20%20%20%20%3C%2Fcc%3AAgent%3E%0A%20%20%20%20%3C%2Fdc%3Acreator%3E%0A%20%20%20%3C%2Fcc%3AWork%3E%0A%20%20%3C%2Frdf%3ARDF%3E%0A%20%3C%2Fmetadata%3E%0A%20%3Cdefs%3E%0A%20%20%3Cstyle%20type%3D%22text%2Fcss%22%3E*%7Bstroke-linejoin%3A%20round%3B%20stroke-linecap%3A%20butt%7D%3C%2Fstyle%3E%0A%20%3C%2Fdefs%3E%0A%20%3Cg%20id%3D%22figure_1%22%3E%0A%20%20%3Cg%20id%3D%22patch_1%22%3E%0A%20%20%20%3Cpath%20d%3D%22M%200%20280.512%20%0AL%20280.512%20280.512%20%0AL%20280.512%200%20%0AL%200%200%20%0Az%0A%22%20style%3D%22fill%3A%20%23ffffff%22%2F%3E%0A%20%20%3C%2Fg%3E%0A%20%20%3Cg%20id%3D%22patch_2%22%3E%0A%20%20%20%3Cpath%20d%3D%22M%207.2%20273.312%20%0AL%20273.312%20273.312%20%0AL%20273.312%207.2%20%0AL%207.2%207.2%20%0Az%0A%22%20style%3D%22fill%3A%20%23ffffff%22%2F%3E%0A%20%20%3C%2Fg%3E%0A%20%20%3Cg%20id%3D%22axes_1%22%3E%0A%20%20%20%3Cg%20id%3D%22line2d_1%22%3E%0A%20%20%20%20%3Cpath%20d%3D%22M%2074.386458%20116.606886%20%0AL%20216.842635%20157.730442%20%0A%22%20clip-path%3D%22url(%23p37bd631a5d)%22%20style%3D%22fill%3A%20none%3B%20stroke%3A%20%23000000%3B%20stroke-width%3A%200.5%3B%20stroke-linecap%3A%20square%22%2F%3E%0A%20%20%20%3C%2Fg%3E%0A%20%20%20%3Cg%20id%3D%22line2d_2%22%3E%0A%20%20%20%20%3Cpath%20d%3D%22M%20100.913504%20173.845814%20%0AL%20183.261512%20102.530347%20%0A%22%20clip-path%3D%22url(%23p37bd631a5d)%22%20style%3D%22fill%3A%20none%3B%20stroke%3A%20%23000000%3B%20stroke-width%3A%200.5%3B%20stroke-linecap%3A%20square%22%2F%3E%0A%20%20%20%3C%2Fg%3E%0A%20%20%20%3Cg%20id%3D%22line2d_3%22%3E%0A%20%20%20%20%3Cpath%20d%3D%22M%20143.852108%20188.928216%20%0AL%20143.852108%2082.102444%20%0A%22%20clip-path%3D%22url(%23p37bd631a5d)%22%20style%3D%22fill%3A%20none%3B%20stroke%3A%20%23000000%3B%20stroke-width%3A%200.5%3B%20stroke-linecap%3A%20square%22%2F%3E%0A%20%20%20%3C%2Fg%3E%0A%20%20%20%3Cg%20id%3D%22line2d_4%22%3E%0A%20%20%20%20%3Cpath%20d%3D%22M%2074.386458%20116.606886%20%0AL%20115.517787%20128.480478%20%0AL%20115.953357%20154.761295%20%0AL%20115.796971%20128.561071%20%0AL%20172.465312%20144.919812%20%0AL%20172.925145%20117.796582%20%0AL%20172.755771%20145.003661%20%0AL%20216.692958%20157.687234%20%0AL%20216.692958%20157.687234%20%0A%22%20clip-path%3D%22url(%23p37bd631a5d)%22%20style%3D%22fill%3A%20none%3B%20stroke%3A%20%230000ff%3B%20stroke-width%3A%201.5%3B%20stroke-linecap%3A%20square%22%2F%3E%0A%20%20%20%3C%2Fg%3E%0A%20%20%20%3Cg%20id%3D%22text_1%22%3E%0A%20%20%20%20%3C!--%20%24f%24%20--%3E%0A%20%20%20%20%3Cg%20transform%3D%22translate(216.842635%20157.730442)%20scale(0.1%20-0.1)%22%3E%0A%20%20%20%20%20%3Cdefs%3E%0A%20%20%20%20%20%20%3Cpath%20id%3D%22DejaVuSans-Oblique-66%22%20d%3D%22M%203059%204863%20%0AL%202969%204384%20%0AL%202419%204384%20%0AQ%202106%204384%201964%204261%20%0AQ%201822%204138%201753%203809%20%0AL%201691%203500%20%0AL%202638%203500%20%0AL%202553%203053%20%0AL%201606%203053%20%0AL%201013%200%20%0AL%20434%200%20%0AL%201031%203053%20%0AL%20481%203053%20%0AL%20563%203500%20%0AL%201113%203500%20%0AL%201159%203744%20%0AQ%201278%204363%201576%204613%20%0AQ%201875%204863%202516%204863%20%0AL%203059%204863%20%0Az%0A%22%20transform%3D%22scale(0.015625)%22%2F%3E%0A%20%20%20%20%20%3C%2Fdefs%3E%0A%20%20%20%20%20%3Cuse%20xlink%3Ahref%3D%22%23DejaVuSans-Oblique-66%22%20transform%3D%22translate(0%200.015625)%22%2F%3E%0A%20%20%20%20%3C%2Fg%3E%0A%20%20%20%3C%2Fg%3E%0A%20%20%20%3Cg%20id%3D%22text_2%22%3E%0A%20%20%20%20%3C!--%20%24Re%24%20--%3E%0A%20%20%20%20%3Cg%20transform%3D%22translate(183.261512%20102.530347)%20scale(0.1%20-0.1)%22%3E%0A%20%20%20%20%20%3Cdefs%3E%0A%20%20%20%20%20%20%3Cpath%20id%3D%22DejaVuSans-Oblique-52%22%20d%3D%22M%201613%204147%20%0AL%201294%202491%20%0AL%202106%202491%20%0AQ%202584%202491%202879%202755%20%0AQ%203175%203019%203175%203444%20%0AQ%203175%203784%202976%203965%20%0AQ%202778%204147%202406%204147%20%0AL%201613%204147%20%0Az%0AM%202772%202241%20%0AQ%202972%202194%203105%202009%20%0AQ%203238%201825%203413%201275%20%0AL%203809%200%20%0AL%203144%200%20%0AL%202778%201197%20%0AQ%202638%201659%202453%201815%20%0AQ%202269%201972%201888%201972%20%0AL%201191%201972%20%0AL%20806%200%20%0AL%20172%200%20%0AL%201081%204666%20%0AL%202503%204666%20%0AQ%203150%204666%203495%204373%20%0AQ%203841%204081%203841%203531%20%0AQ%203841%203044%203547%202687%20%0AQ%203253%202331%202772%202241%20%0Az%0A%22%20transform%3D%22scale(0.015625)%22%2F%3E%0A%20%20%20%20%20%20%3Cpath%20id%3D%22DejaVuSans-Oblique-65%22%20d%3D%22M%203078%202063%20%0AQ%203088%202113%203092%202166%20%0AQ%203097%202219%203097%202272%20%0AQ%203097%202653%202873%202875%20%0AQ%202650%203097%202266%203097%20%0AQ%201838%203097%201509%202826%20%0AQ%201181%202556%201013%202059%20%0AL%203078%202063%20%0Az%0AM%203578%201613%20%0AL%20903%201613%20%0AQ%20884%201494%20878%201425%20%0AQ%20872%201356%20872%201306%20%0AQ%20872%20872%201139%20634%20%0AQ%201406%20397%201894%20397%20%0AQ%202269%20397%202603%20481%20%0AQ%202938%20566%203225%20728%20%0AL%203116%20159%20%0AQ%202806%2034%202476%20-28%20%0AQ%202147%20-91%201806%20-91%20%0AQ%201078%20-91%20686%20257%20%0AQ%20294%20606%20294%201247%20%0AQ%20294%201794%20489%202264%20%0AQ%20684%202734%201063%203103%20%0AQ%201306%203334%201642%203459%20%0AQ%201978%203584%202356%203584%20%0AQ%202950%203584%203301%203228%20%0AQ%203653%202872%203653%202272%20%0AQ%203653%202128%203634%201964%20%0AQ%203616%201800%203578%201613%20%0Az%0A%22%20transform%3D%22scale(0.015625)%22%2F%3E%0A%20%20%20%20%20%3C%2Fdefs%3E%0A%20%20%20%20%20%3Cuse%20xlink%3Ahref%3D%22%23DejaVuSans-Oblique-52%22%20transform%3D%22translate(0%200.09375)%22%2F%3E%0A%20%20%20%20%20%3Cuse%20xlink%3Ahref%3D%22%23DejaVuSans-Oblique-65%22%20transform%3D%22translate(69.482422%200.09375)%22%2F%3E%0A%20%20%20%20%3C%2Fg%3E%0A%20%20%20%3C%2Fg%3E%0A%20%20%20%3Cg%20id%3D%22text_3%22%3E%0A%20%20%20%20%3C!--%20%24Im%24%20--%3E%0A%20%20%20%20%3Cg%20transform%3D%22translate(143.852108%2082.102444)%20scale(0.1%20-0.1)%22%3E%0A%20%20%20%20%20%3Cdefs%3E%0A%20%20%20%20%20%20%3Cpath%20id%3D%22DejaVuSans-Oblique-49%22%20d%3D%22M%201081%204666%20%0AL%201716%204666%20%0AL%20806%200%20%0AL%20172%200%20%0AL%201081%204666%20%0Az%0A%22%20transform%3D%22scale(0.015625)%22%2F%3E%0A%20%20%20%20%20%20%3Cpath%20id%3D%22DejaVuSans-Oblique-6d%22%20d%3D%22M%205747%202113%20%0AL%205338%200%20%0AL%204763%200%20%0AL%205166%202094%20%0AQ%205191%202228%205203%202325%20%0AQ%205216%202422%205216%202491%20%0AQ%205216%202772%205059%202928%20%0AQ%204903%203084%204622%203084%20%0AQ%204203%203084%203875%202770%20%0AQ%203547%202456%203450%201953%20%0AL%203066%200%20%0AL%202491%200%20%0AL%202900%202094%20%0AQ%202925%202209%202937%202307%20%0AQ%202950%202406%202950%202484%20%0AQ%202950%202769%202794%202926%20%0AQ%202638%203084%202363%203084%20%0AQ%201938%203084%201609%202770%20%0AQ%201281%202456%201184%201953%20%0AL%20800%200%20%0AL%20225%200%20%0AL%20909%203500%20%0AL%201484%203500%20%0AL%201375%202956%20%0AQ%201609%203263%201923%203423%20%0AQ%202238%203584%202597%203584%20%0AQ%202978%203584%203223%203384%20%0AQ%203469%203184%203519%202828%20%0AQ%203781%203197%204126%203390%20%0AQ%204472%203584%204856%203584%20%0AQ%205306%203584%205551%203325%20%0AQ%205797%203066%205797%202591%20%0AQ%205797%202488%205784%202364%20%0AQ%205772%202241%205747%202113%20%0Az%0A%22%20transform%3D%22scale(0.015625)%22%2F%3E%0A%20%20%20%20%20%3C%2Fdefs%3E%0A%20%20%20%20%20%3Cuse%20xlink%3Ahref%3D%22%23DejaVuSans-Oblique-49%22%20transform%3D%22translate(0%200.09375)%22%2F%3E%0A%20%20%20%20%20%3Cuse%20xlink%3Ahref%3D%22%23DejaVuSans-Oblique-6d%22%20transform%3D%22translate(29.492188%200.09375)%22%2F%3E%0A%20%20%20%20%3C%2Fg%3E%0A%20%20%20%3C%2Fg%3E%0A%20%20%3C%2Fg%3E%0A%20%3C%2Fg%3E%0A%20%3Cdefs%3E%0A%20%20%3CclipPath%20id%3D%22p37bd631a5d%22%3E%0A%20%20%20%3Crect%20x%3D%227.2%22%20y%3D%227.2%22%20width%3D%22266.112%22%20height%3D%22266.112%22%2F%3E%0A%20%20%3C%2FclipPath%3E%0A%20%3C%2Fdefs%3E%0A%3C%2Fsvg%3E;clipPath=inset(25.33% 20.33% 32% 25%);imageBorder=#7EA6E0;" vertex="1" parent="WIyWlLk6GJQsqaUBKTNV-1">
          <mxGeometry x="240" y="470" width="153.75" height="120" as="geometry" />
        </mxCell>
        <mxCell id="19jjWzB2dqfbjUOQzjkO-12" style="edgeStyle=none;rounded=0;orthogonalLoop=1;jettySize=auto;html=1;exitX=0.5;exitY=1;exitDx=0;exitDy=0;strokeColor=#7EA6E0;" edge="1" parent="WIyWlLk6GJQsqaUBKTNV-1" source="19jjWzB2dqfbjUOQzjkO-4">
          <mxGeometry relative="1" as="geometry">
            <mxPoint x="510" y="300" as="targetPoint" />
          </mxGeometry>
        </mxCell>
        <mxCell id="19jjWzB2dqfbjUOQzjkO-4" value="" style="shape=image;verticalLabelPosition=bottom;labelBackgroundColor=default;verticalAlign=top;aspect=fixed;imageAspect=0;image=data:image/svg+xml,%3C%3Fxml%20version%3D%221.0%22%20encoding%3D%22utf-8%22%20standalone%3D%22no%22%3F%3E%0A%3C!DOCTYPE%20svg%20PUBLIC%20%22-%2F%2FW3C%2F%2FDTD%20SVG%201.1%2F%2FEN%22%0A%20%20%22http%3A%2F%2Fwww.w3.org%2FGraphics%2FSVG%2F1.1%2FDTD%2Fsvg11.dtd%22%3E%0A%3Csvg%20xmlns%3Axlink%3D%22http%3A%2F%2Fwww.w3.org%2F1999%2Fxlink%22%20width%3D%22280.512pt%22%20height%3D%22280.512pt%22%20viewBox%3D%220%200%20280.512%20280.512%22%20xmlns%3D%22http%3A%2F%2Fwww.w3.org%2F2000%2Fsvg%22%20version%3D%221.1%22%3E%0A%20%3Cmetadata%3E%0A%20%20%3Crdf%3ARDF%20xmlns%3Adc%3D%22http%3A%2F%2Fpurl.org%2Fdc%2Felements%2F1.1%2F%22%20xmlns%3Acc%3D%22http%3A%2F%2Fcreativecommons.org%2Fns%23%22%20xmlns%3Ardf%3D%22http%3A%2F%2Fwww.w3.org%2F1999%2F02%2F22-rdf-syntax-ns%23%22%3E%0A%20%20%20%3Ccc%3AWork%3E%0A%20%20%20%20%3Cdc%3Atype%20rdf%3Aresource%3D%22http%3A%2F%2Fpurl.org%2Fdc%2Fdcmitype%2FStillImage%22%2F%3E%0A%20%20%20%20%3Cdc%3Adate%3E2024-02-03T16%3A49%3A39.079905%3C%2Fdc%3Adate%3E%0A%20%20%20%20%3Cdc%3Aformat%3Eimage%2Fsvg%2Bxml%3C%2Fdc%3Aformat%3E%0A%20%20%20%20%3Cdc%3Acreator%3E%0A%20%20%20%20%20%3Ccc%3AAgent%3E%0A%20%20%20%20%20%20%3Cdc%3Atitle%3EMatplotlib%20v3.8.0%2C%20https%3A%2F%2Fmatplotlib.org%2F%3C%2Fdc%3Atitle%3E%0A%20%20%20%20%20%3C%2Fcc%3AAgent%3E%0A%20%20%20%20%3C%2Fdc%3Acreator%3E%0A%20%20%20%3C%2Fcc%3AWork%3E%0A%20%20%3C%2Frdf%3ARDF%3E%0A%20%3C%2Fmetadata%3E%0A%20%3Cdefs%3E%0A%20%20%3Cstyle%20type%3D%22text%2Fcss%22%3E*%7Bstroke-linejoin%3A%20round%3B%20stroke-linecap%3A%20butt%7D%3C%2Fstyle%3E%0A%20%3C%2Fdefs%3E%0A%20%3Cg%20id%3D%22figure_1%22%3E%0A%20%20%3Cg%20id%3D%22patch_1%22%3E%0A%20%20%20%3Cpath%20d%3D%22M%200%20280.512%20%0AL%20280.512%20280.512%20%0AL%20280.512%200%20%0AL%200%200%20%0Az%0A%22%20style%3D%22fill%3A%20%23ffffff%22%2F%3E%0A%20%20%3C%2Fg%3E%0A%20%20%3Cg%20id%3D%22patch_2%22%3E%0A%20%20%20%3Cpath%20d%3D%22M%207.2%20273.312%20%0AL%20273.312%20273.312%20%0AL%20273.312%207.2%20%0AL%207.2%207.2%20%0Az%0A%22%20style%3D%22fill%3A%20%23ffffff%22%2F%3E%0A%20%20%3C%2Fg%3E%0A%20%20%3Cg%20id%3D%22axes_1%22%3E%0A%20%20%20%3Cg%20id%3D%22line2d_1%22%3E%0A%20%20%20%20%3Cpath%20d%3D%22M%2074.386458%20116.606886%20%0AL%20216.842635%20157.730442%20%0A%22%20clip-path%3D%22url(%23p9bfd2a97c0)%22%20style%3D%22fill%3A%20none%3B%20stroke%3A%20%23000000%3B%20stroke-width%3A%200.5%3B%20stroke-linecap%3A%20square%22%2F%3E%0A%20%20%20%3C%2Fg%3E%0A%20%20%20%3Cg%20id%3D%22line2d_2%22%3E%0A%20%20%20%20%3Cpath%20d%3D%22M%20100.913504%20173.845814%20%0AL%20183.261512%20102.530347%20%0A%22%20clip-path%3D%22url(%23p9bfd2a97c0)%22%20style%3D%22fill%3A%20none%3B%20stroke%3A%20%23000000%3B%20stroke-width%3A%200.5%3B%20stroke-linecap%3A%20square%22%2F%3E%0A%20%20%20%3C%2Fg%3E%0A%20%20%20%3Cg%20id%3D%22line2d_3%22%3E%0A%20%20%20%20%3Cpath%20d%3D%22M%20143.852108%20188.928216%20%0AL%20143.852108%2082.102444%20%0A%22%20clip-path%3D%22url(%23p9bfd2a97c0)%22%20style%3D%22fill%3A%20none%3B%20stroke%3A%20%23000000%3B%20stroke-width%3A%200.5%3B%20stroke-linecap%3A%20square%22%2F%3E%0A%20%20%20%3C%2Fg%3E%0A%20%20%20%3Cg%20id%3D%22line2d_4%22%3E%0A%20%20%20%20%3Cpath%20d%3D%22M%2074.386458%20116.606886%20%0AL%2079.820019%20118.17542%20%0AL%2090.560819%20109.795716%20%0AL%2096.38534%20122.957416%20%0AL%20135.335259%20134.201289%20%0AL%20145.786724%20125.416558%20%0AL%20162.466049%20130.163087%20%0AL%20152.419685%20139.133138%20%0AL%20193.316529%20150.83764%20%0AL%20220.392565%20146.747037%20%0AL%20210.867371%20156.005532%20%0AL%20216.692958%20157.687234%20%0AL%20216.692958%20157.687234%20%0A%22%20clip-path%3D%22url(%23p9bfd2a97c0)%22%20style%3D%22fill%3A%20none%3B%20stroke%3A%20%230000ff%3B%20stroke-width%3A%201.5%3B%20stroke-linecap%3A%20square%22%2F%3E%0A%20%20%20%3C%2Fg%3E%0A%20%20%20%3Cg%20id%3D%22line2d_5%22%3E%0A%20%20%20%20%3Cpath%20d%3D%22M%2074.386458%20116.606886%20%0AL%2079.820019%20118.17542%20%0AL%2090.560819%20109.795716%20%0AL%2096.38534%20122.957416%20%0AL%20135.563627%20134.167815%20%0AL%20162.382039%20130.236702%20%0AL%20152.419685%20139.133138%20%0AL%20216.692958%20157.687234%20%0AL%20216.692958%20157.687234%20%0A%22%20clip-path%3D%22url(%23p9bfd2a97c0)%22%20style%3D%22fill%3A%20none%3B%20stroke-dasharray%3A%200.5%2C0.825%3B%20stroke-dashoffset%3A%200%3B%20stroke%3A%20%230000ff%3B%20stroke-width%3A%200.5%22%2F%3E%0A%20%20%20%3C%2Fg%3E%0A%20%20%20%3Cg%20id%3D%22line2d_6%22%3E%0A%20%20%20%20%3Cpath%20d%3D%22M%2074.386458%20116.606886%20%0AL%20135.335259%20134.201289%20%0AL%20145.701717%20125.489327%20%0AL%20152.56291%20139.174484%20%0AL%20193.316529%20150.83764%20%0AL%20220.392565%20146.747037%20%0AL%20210.867371%20156.005532%20%0AL%20216.692958%20157.687234%20%0AL%20216.692958%20157.687234%20%0A%22%20clip-path%3D%22url(%23p9bfd2a97c0)%22%20style%3D%22fill%3A%20none%3B%20stroke-dasharray%3A%200.5%2C0.825%3B%20stroke-dashoffset%3A%200%3B%20stroke%3A%20%230000ff%3B%20stroke-width%3A%200.5%22%2F%3E%0A%20%20%20%3C%2Fg%3E%0A%20%20%20%3Cg%20id%3D%22text_1%22%3E%0A%20%20%20%20%3C!--%20%24f%24%20--%3E%0A%20%20%20%20%3Cg%20transform%3D%22translate(216.842635%20157.730442)%20scale(0.1%20-0.1)%22%3E%0A%20%20%20%20%20%3Cdefs%3E%0A%20%20%20%20%20%20%3Cpath%20id%3D%22DejaVuSans-Oblique-66%22%20d%3D%22M%203059%204863%20%0AL%202969%204384%20%0AL%202419%204384%20%0AQ%202106%204384%201964%204261%20%0AQ%201822%204138%201753%203809%20%0AL%201691%203500%20%0AL%202638%203500%20%0AL%202553%203053%20%0AL%201606%203053%20%0AL%201013%200%20%0AL%20434%200%20%0AL%201031%203053%20%0AL%20481%203053%20%0AL%20563%203500%20%0AL%201113%203500%20%0AL%201159%203744%20%0AQ%201278%204363%201576%204613%20%0AQ%201875%204863%202516%204863%20%0AL%203059%204863%20%0Az%0A%22%20transform%3D%22scale(0.015625)%22%2F%3E%0A%20%20%20%20%20%3C%2Fdefs%3E%0A%20%20%20%20%20%3Cuse%20xlink%3Ahref%3D%22%23DejaVuSans-Oblique-66%22%20transform%3D%22translate(0%200.015625)%22%2F%3E%0A%20%20%20%20%3C%2Fg%3E%0A%20%20%20%3C%2Fg%3E%0A%20%20%20%3Cg%20id%3D%22text_2%22%3E%0A%20%20%20%20%3C!--%20%24Re%24%20--%3E%0A%20%20%20%20%3Cg%20transform%3D%22translate(183.261512%20102.530347)%20scale(0.1%20-0.1)%22%3E%0A%20%20%20%20%20%3Cdefs%3E%0A%20%20%20%20%20%20%3Cpath%20id%3D%22DejaVuSans-Oblique-52%22%20d%3D%22M%201613%204147%20%0AL%201294%202491%20%0AL%202106%202491%20%0AQ%202584%202491%202879%202755%20%0AQ%203175%203019%203175%203444%20%0AQ%203175%203784%202976%203965%20%0AQ%202778%204147%202406%204147%20%0AL%201613%204147%20%0Az%0AM%202772%202241%20%0AQ%202972%202194%203105%202009%20%0AQ%203238%201825%203413%201275%20%0AL%203809%200%20%0AL%203144%200%20%0AL%202778%201197%20%0AQ%202638%201659%202453%201815%20%0AQ%202269%201972%201888%201972%20%0AL%201191%201972%20%0AL%20806%200%20%0AL%20172%200%20%0AL%201081%204666%20%0AL%202503%204666%20%0AQ%203150%204666%203495%204373%20%0AQ%203841%204081%203841%203531%20%0AQ%203841%203044%203547%202687%20%0AQ%203253%202331%202772%202241%20%0Az%0A%22%20transform%3D%22scale(0.015625)%22%2F%3E%0A%20%20%20%20%20%20%3Cpath%20id%3D%22DejaVuSans-Oblique-65%22%20d%3D%22M%203078%202063%20%0AQ%203088%202113%203092%202166%20%0AQ%203097%202219%203097%202272%20%0AQ%203097%202653%202873%202875%20%0AQ%202650%203097%202266%203097%20%0AQ%201838%203097%201509%202826%20%0AQ%201181%202556%201013%202059%20%0AL%203078%202063%20%0Az%0AM%203578%201613%20%0AL%20903%201613%20%0AQ%20884%201494%20878%201425%20%0AQ%20872%201356%20872%201306%20%0AQ%20872%20872%201139%20634%20%0AQ%201406%20397%201894%20397%20%0AQ%202269%20397%202603%20481%20%0AQ%202938%20566%203225%20728%20%0AL%203116%20159%20%0AQ%202806%2034%202476%20-28%20%0AQ%202147%20-91%201806%20-91%20%0AQ%201078%20-91%20686%20257%20%0AQ%20294%20606%20294%201247%20%0AQ%20294%201794%20489%202264%20%0AQ%20684%202734%201063%203103%20%0AQ%201306%203334%201642%203459%20%0AQ%201978%203584%202356%203584%20%0AQ%202950%203584%203301%203228%20%0AQ%203653%202872%203653%202272%20%0AQ%203653%202128%203634%201964%20%0AQ%203616%201800%203578%201613%20%0Az%0A%22%20transform%3D%22scale(0.015625)%22%2F%3E%0A%20%20%20%20%20%3C%2Fdefs%3E%0A%20%20%20%20%20%3Cuse%20xlink%3Ahref%3D%22%23DejaVuSans-Oblique-52%22%20transform%3D%22translate(0%200.09375)%22%2F%3E%0A%20%20%20%20%20%3Cuse%20xlink%3Ahref%3D%22%23DejaVuSans-Oblique-65%22%20transform%3D%22translate(69.482422%200.09375)%22%2F%3E%0A%20%20%20%20%3C%2Fg%3E%0A%20%20%20%3C%2Fg%3E%0A%20%20%20%3Cg%20id%3D%22text_3%22%3E%0A%20%20%20%20%3C!--%20%24Im%24%20--%3E%0A%20%20%20%20%3Cg%20transform%3D%22translate(143.852108%2082.102444)%20scale(0.1%20-0.1)%22%3E%0A%20%20%20%20%20%3Cdefs%3E%0A%20%20%20%20%20%20%3Cpath%20id%3D%22DejaVuSans-Oblique-49%22%20d%3D%22M%201081%204666%20%0AL%201716%204666%20%0AL%20806%200%20%0AL%20172%200%20%0AL%201081%204666%20%0Az%0A%22%20transform%3D%22scale(0.015625)%22%2F%3E%0A%20%20%20%20%20%20%3Cpath%20id%3D%22DejaVuSans-Oblique-6d%22%20d%3D%22M%205747%202113%20%0AL%205338%200%20%0AL%204763%200%20%0AL%205166%202094%20%0AQ%205191%202228%205203%202325%20%0AQ%205216%202422%205216%202491%20%0AQ%205216%202772%205059%202928%20%0AQ%204903%203084%204622%203084%20%0AQ%204203%203084%203875%202770%20%0AQ%203547%202456%203450%201953%20%0AL%203066%200%20%0AL%202491%200%20%0AL%202900%202094%20%0AQ%202925%202209%202937%202307%20%0AQ%202950%202406%202950%202484%20%0AQ%202950%202769%202794%202926%20%0AQ%202638%203084%202363%203084%20%0AQ%201938%203084%201609%202770%20%0AQ%201281%202456%201184%201953%20%0AL%20800%200%20%0AL%20225%200%20%0AL%20909%203500%20%0AL%201484%203500%20%0AL%201375%202956%20%0AQ%201609%203263%201923%203423%20%0AQ%202238%203584%202597%203584%20%0AQ%202978%203584%203223%203384%20%0AQ%203469%203184%203519%202828%20%0AQ%203781%203197%204126%203390%20%0AQ%204472%203584%204856%203584%20%0AQ%205306%203584%205551%203325%20%0AQ%205797%203066%205797%202591%20%0AQ%205797%202488%205784%202364%20%0AQ%205772%202241%205747%202113%20%0Az%0A%22%20transform%3D%22scale(0.015625)%22%2F%3E%0A%20%20%20%20%20%3C%2Fdefs%3E%0A%20%20%20%20%20%3Cuse%20xlink%3Ahref%3D%22%23DejaVuSans-Oblique-49%22%20transform%3D%22translate(0%200.09375)%22%2F%3E%0A%20%20%20%20%20%3Cuse%20xlink%3Ahref%3D%22%23DejaVuSans-Oblique-6d%22%20transform%3D%22translate(29.492188%200.09375)%22%2F%3E%0A%20%20%20%20%3C%2Fg%3E%0A%20%20%20%3C%2Fg%3E%0A%20%20%3C%2Fg%3E%0A%20%3C%2Fg%3E%0A%20%3Cdefs%3E%0A%20%20%3CclipPath%20id%3D%22p9bfd2a97c0%22%3E%0A%20%20%20%3Crect%20x%3D%227.2%22%20y%3D%227.2%22%20width%3D%22266.112%22%20height%3D%22266.112%22%2F%3E%0A%20%20%3C%2FclipPath%3E%0A%20%3C%2Fdefs%3E%0A%3C%2Fsvg%3E;clipPath=inset(25% 20.33% 31.33% 25.33%);imageBorder=#7EA6E0;" vertex="1" parent="WIyWlLk6GJQsqaUBKTNV-1">
          <mxGeometry x="450" y="160" width="149.31" height="120" as="geometry" />
        </mxCell>
        <mxCell id="19jjWzB2dqfbjUOQzjkO-13" style="edgeStyle=none;rounded=0;orthogonalLoop=1;jettySize=auto;html=1;exitX=0.5;exitY=0;exitDx=0;exitDy=0;strokeColor=#7EA6E0;" edge="1" parent="WIyWlLk6GJQsqaUBKTNV-1" source="19jjWzB2dqfbjUOQzjkO-5">
          <mxGeometry relative="1" as="geometry">
            <mxPoint x="510" y="460" as="targetPoint" />
          </mxGeometry>
        </mxCell>
        <mxCell id="19jjWzB2dqfbjUOQzjkO-5" value="" style="shape=image;verticalLabelPosition=bottom;labelBackgroundColor=default;verticalAlign=top;aspect=fixed;imageAspect=0;image=data:image/svg+xml,%3C%3Fxml%20version%3D%221.0%22%20encoding%3D%22utf-8%22%20standalone%3D%22no%22%3F%3E%0A%3C!DOCTYPE%20svg%20PUBLIC%20%22-%2F%2FW3C%2F%2FDTD%20SVG%201.1%2F%2FEN%22%0A%20%20%22http%3A%2F%2Fwww.w3.org%2FGraphics%2FSVG%2F1.1%2FDTD%2Fsvg11.dtd%22%3E%0A%3Csvg%20xmlns%3Axlink%3D%22http%3A%2F%2Fwww.w3.org%2F1999%2Fxlink%22%20width%3D%22280.512pt%22%20height%3D%22280.512pt%22%20viewBox%3D%220%200%20280.512%20280.512%22%20xmlns%3D%22http%3A%2F%2Fwww.w3.org%2F2000%2Fsvg%22%20version%3D%221.1%22%3E%0A%20%3Cmetadata%3E%0A%20%20%3Crdf%3ARDF%20xmlns%3Adc%3D%22http%3A%2F%2Fpurl.org%2Fdc%2Felements%2F1.1%2F%22%20xmlns%3Acc%3D%22http%3A%2F%2Fcreativecommons.org%2Fns%23%22%20xmlns%3Ardf%3D%22http%3A%2F%2Fwww.w3.org%2F1999%2F02%2F22-rdf-syntax-ns%23%22%3E%0A%20%20%20%3Ccc%3AWork%3E%0A%20%20%20%20%3Cdc%3Atype%20rdf%3Aresource%3D%22http%3A%2F%2Fpurl.org%2Fdc%2Fdcmitype%2FStillImage%22%2F%3E%0A%20%20%20%20%3Cdc%3Adate%3E2024-02-03T16%3A49%3A39.114811%3C%2Fdc%3Adate%3E%0A%20%20%20%20%3Cdc%3Aformat%3Eimage%2Fsvg%2Bxml%3C%2Fdc%3Aformat%3E%0A%20%20%20%20%3Cdc%3Acreator%3E%0A%20%20%20%20%20%3Ccc%3AAgent%3E%0A%20%20%20%20%20%20%3Cdc%3Atitle%3EMatplotlib%20v3.8.0%2C%20https%3A%2F%2Fmatplotlib.org%2F%3C%2Fdc%3Atitle%3E%0A%20%20%20%20%20%3C%2Fcc%3AAgent%3E%0A%20%20%20%20%3C%2Fdc%3Acreator%3E%0A%20%20%20%3C%2Fcc%3AWork%3E%0A%20%20%3C%2Frdf%3ARDF%3E%0A%20%3C%2Fmetadata%3E%0A%20%3Cdefs%3E%0A%20%20%3Cstyle%20type%3D%22text%2Fcss%22%3E*%7Bstroke-linejoin%3A%20round%3B%20stroke-linecap%3A%20butt%7D%3C%2Fstyle%3E%0A%20%3C%2Fdefs%3E%0A%20%3Cg%20id%3D%22figure_1%22%3E%0A%20%20%3Cg%20id%3D%22patch_1%22%3E%0A%20%20%20%3Cpath%20d%3D%22M%200%20280.512%20%0AL%20280.512%20280.512%20%0AL%20280.512%200%20%0AL%200%200%20%0Az%0A%22%20style%3D%22fill%3A%20%23ffffff%22%2F%3E%0A%20%20%3C%2Fg%3E%0A%20%20%3Cg%20id%3D%22patch_2%22%3E%0A%20%20%20%3Cpath%20d%3D%22M%207.2%20273.312%20%0AL%20273.312%20273.312%20%0AL%20273.312%207.2%20%0AL%207.2%207.2%20%0Az%0A%22%20style%3D%22fill%3A%20%23ffffff%22%2F%3E%0A%20%20%3C%2Fg%3E%0A%20%20%3Cg%20id%3D%22axes_1%22%3E%0A%20%20%20%3Cg%20id%3D%22line2d_1%22%3E%0A%20%20%20%20%3Cpath%20d%3D%22M%2074.386458%20116.606886%20%0AL%20216.842635%20157.730442%20%0A%22%20clip-path%3D%22url(%23p2ddb7c1072)%22%20style%3D%22fill%3A%20none%3B%20stroke%3A%20%23000000%3B%20stroke-width%3A%200.5%3B%20stroke-linecap%3A%20square%22%2F%3E%0A%20%20%20%3C%2Fg%3E%0A%20%20%20%3Cg%20id%3D%22line2d_2%22%3E%0A%20%20%20%20%3Cpath%20d%3D%22M%20100.913504%20173.845814%20%0AL%20183.261512%20102.530347%20%0A%22%20clip-path%3D%22url(%23p2ddb7c1072)%22%20style%3D%22fill%3A%20none%3B%20stroke%3A%20%23000000%3B%20stroke-width%3A%200.5%3B%20stroke-linecap%3A%20square%22%2F%3E%0A%20%20%20%3C%2Fg%3E%0A%20%20%20%3Cg%20id%3D%22line2d_3%22%3E%0A%20%20%20%20%3Cpath%20d%3D%22M%20143.852108%20188.928216%20%0AL%20143.852108%2082.102444%20%0A%22%20clip-path%3D%22url(%23p2ddb7c1072)%22%20style%3D%22fill%3A%20none%3B%20stroke%3A%20%23000000%3B%20stroke-width%3A%200.5%3B%20stroke-linecap%3A%20square%22%2F%3E%0A%20%20%20%3C%2Fg%3E%0A%20%20%20%3Cg%20id%3D%22line2d_4%22%3E%0A%20%20%20%20%3Cpath%20d%3D%22M%2074.386458%20116.606886%20%0AL%2079.820019%20118.17542%20%0AL%2080.289081%20131.293471%20%0AL%2096.38534%20122.957416%20%0AL%20135.335259%20134.201289%20%0AL%20135.432196%20120.962604%20%0AL%20152.231829%20152.282251%20%0AL%20152.419685%20139.133138%20%0AL%20193.235497%20150.801558%20%0AL%20211.086858%20142.336305%20%0AL%20210.867371%20156.005532%20%0AL%20216.692958%20157.687234%20%0AL%20216.692958%20157.687234%20%0A%22%20clip-path%3D%22url(%23p2ddb7c1072)%22%20style%3D%22fill%3A%20none%3B%20stroke%3A%20%230000ff%3B%20stroke-width%3A%201.5%3B%20stroke-linecap%3A%20square%22%2F%3E%0A%20%20%20%3C%2Fg%3E%0A%20%20%20%3Cg%20id%3D%22line2d_5%22%3E%0A%20%20%20%20%3Cpath%20d%3D%22M%2074.386458%20116.606886%20%0AL%2079.820019%20118.17542%20%0AL%2080.289081%20131.293471%20%0AL%2096.38534%20122.957416%20%0AL%20135.477169%20134.354084%20%0AL%20152.231453%20152.393437%20%0AL%20152.419685%20139.133138%20%0AL%20216.692958%20157.687234%20%0AL%20216.692958%20157.687234%20%0A%22%20clip-path%3D%22url(%23p2ddb7c1072)%22%20style%3D%22fill%3A%20none%3B%20stroke-dasharray%3A%200.5%2C0.825%3B%20stroke-dashoffset%3A%200%3B%20stroke%3A%20%230000ff%3B%20stroke-width%3A%200.5%22%2F%3E%0A%20%20%20%3C%2Fg%3E%0A%20%20%20%3Cg%20id%3D%22line2d_6%22%3E%0A%20%20%20%20%3Cpath%20d%3D%22M%2074.386458%20116.606886%20%0AL%20135.335259%20134.201289%20%0AL%20135.431816%20120.849461%20%0AL%20152.56291%20139.174484%20%0AL%20193.235497%20150.801558%20%0AL%20211.086858%20142.336305%20%0AL%20210.867371%20156.005532%20%0AL%20216.692958%20157.687234%20%0AL%20216.692958%20157.687234%20%0A%22%20clip-path%3D%22url(%23p2ddb7c1072)%22%20style%3D%22fill%3A%20none%3B%20stroke-dasharray%3A%200.5%2C0.825%3B%20stroke-dashoffset%3A%200%3B%20stroke%3A%20%230000ff%3B%20stroke-width%3A%200.5%22%2F%3E%0A%20%20%20%3C%2Fg%3E%0A%20%20%20%3Cg%20id%3D%22text_1%22%3E%0A%20%20%20%20%3C!--%20%24f%24%20--%3E%0A%20%20%20%20%3Cg%20transform%3D%22translate(216.842635%20157.730442)%20scale(0.1%20-0.1)%22%3E%0A%20%20%20%20%20%3Cdefs%3E%0A%20%20%20%20%20%20%3Cpath%20id%3D%22DejaVuSans-Oblique-66%22%20d%3D%22M%203059%204863%20%0AL%202969%204384%20%0AL%202419%204384%20%0AQ%202106%204384%201964%204261%20%0AQ%201822%204138%201753%203809%20%0AL%201691%203500%20%0AL%202638%203500%20%0AL%202553%203053%20%0AL%201606%203053%20%0AL%201013%200%20%0AL%20434%200%20%0AL%201031%203053%20%0AL%20481%203053%20%0AL%20563%203500%20%0AL%201113%203500%20%0AL%201159%203744%20%0AQ%201278%204363%201576%204613%20%0AQ%201875%204863%202516%204863%20%0AL%203059%204863%20%0Az%0A%22%20transform%3D%22scale(0.015625)%22%2F%3E%0A%20%20%20%20%20%3C%2Fdefs%3E%0A%20%20%20%20%20%3Cuse%20xlink%3Ahref%3D%22%23DejaVuSans-Oblique-66%22%20transform%3D%22translate(0%200.015625)%22%2F%3E%0A%20%20%20%20%3C%2Fg%3E%0A%20%20%20%3C%2Fg%3E%0A%20%20%20%3Cg%20id%3D%22text_2%22%3E%0A%20%20%20%20%3C!--%20%24Re%24%20--%3E%0A%20%20%20%20%3Cg%20transform%3D%22translate(183.261512%20102.530347)%20scale(0.1%20-0.1)%22%3E%0A%20%20%20%20%20%3Cdefs%3E%0A%20%20%20%20%20%20%3Cpath%20id%3D%22DejaVuSans-Oblique-52%22%20d%3D%22M%201613%204147%20%0AL%201294%202491%20%0AL%202106%202491%20%0AQ%202584%202491%202879%202755%20%0AQ%203175%203019%203175%203444%20%0AQ%203175%203784%202976%203965%20%0AQ%202778%204147%202406%204147%20%0AL%201613%204147%20%0Az%0AM%202772%202241%20%0AQ%202972%202194%203105%202009%20%0AQ%203238%201825%203413%201275%20%0AL%203809%200%20%0AL%203144%200%20%0AL%202778%201197%20%0AQ%202638%201659%202453%201815%20%0AQ%202269%201972%201888%201972%20%0AL%201191%201972%20%0AL%20806%200%20%0AL%20172%200%20%0AL%201081%204666%20%0AL%202503%204666%20%0AQ%203150%204666%203495%204373%20%0AQ%203841%204081%203841%203531%20%0AQ%203841%203044%203547%202687%20%0AQ%203253%202331%202772%202241%20%0Az%0A%22%20transform%3D%22scale(0.015625)%22%2F%3E%0A%20%20%20%20%20%20%3Cpath%20id%3D%22DejaVuSans-Oblique-65%22%20d%3D%22M%203078%202063%20%0AQ%203088%202113%203092%202166%20%0AQ%203097%202219%203097%202272%20%0AQ%203097%202653%202873%202875%20%0AQ%202650%203097%202266%203097%20%0AQ%201838%203097%201509%202826%20%0AQ%201181%202556%201013%202059%20%0AL%203078%202063%20%0Az%0AM%203578%201613%20%0AL%20903%201613%20%0AQ%20884%201494%20878%201425%20%0AQ%20872%201356%20872%201306%20%0AQ%20872%20872%201139%20634%20%0AQ%201406%20397%201894%20397%20%0AQ%202269%20397%202603%20481%20%0AQ%202938%20566%203225%20728%20%0AL%203116%20159%20%0AQ%202806%2034%202476%20-28%20%0AQ%202147%20-91%201806%20-91%20%0AQ%201078%20-91%20686%20257%20%0AQ%20294%20606%20294%201247%20%0AQ%20294%201794%20489%202264%20%0AQ%20684%202734%201063%203103%20%0AQ%201306%203334%201642%203459%20%0AQ%201978%203584%202356%203584%20%0AQ%202950%203584%203301%203228%20%0AQ%203653%202872%203653%202272%20%0AQ%203653%202128%203634%201964%20%0AQ%203616%201800%203578%201613%20%0Az%0A%22%20transform%3D%22scale(0.015625)%22%2F%3E%0A%20%20%20%20%20%3C%2Fdefs%3E%0A%20%20%20%20%20%3Cuse%20xlink%3Ahref%3D%22%23DejaVuSans-Oblique-52%22%20transform%3D%22translate(0%200.09375)%22%2F%3E%0A%20%20%20%20%20%3Cuse%20xlink%3Ahref%3D%22%23DejaVuSans-Oblique-65%22%20transform%3D%22translate(69.482422%200.09375)%22%2F%3E%0A%20%20%20%20%3C%2Fg%3E%0A%20%20%20%3C%2Fg%3E%0A%20%20%20%3Cg%20id%3D%22text_3%22%3E%0A%20%20%20%20%3C!--%20%24Im%24%20--%3E%0A%20%20%20%20%3Cg%20transform%3D%22translate(143.852108%2082.102444)%20scale(0.1%20-0.1)%22%3E%0A%20%20%20%20%20%3Cdefs%3E%0A%20%20%20%20%20%20%3Cpath%20id%3D%22DejaVuSans-Oblique-49%22%20d%3D%22M%201081%204666%20%0AL%201716%204666%20%0AL%20806%200%20%0AL%20172%200%20%0AL%201081%204666%20%0Az%0A%22%20transform%3D%22scale(0.015625)%22%2F%3E%0A%20%20%20%20%20%20%3Cpath%20id%3D%22DejaVuSans-Oblique-6d%22%20d%3D%22M%205747%202113%20%0AL%205338%200%20%0AL%204763%200%20%0AL%205166%202094%20%0AQ%205191%202228%205203%202325%20%0AQ%205216%202422%205216%202491%20%0AQ%205216%202772%205059%202928%20%0AQ%204903%203084%204622%203084%20%0AQ%204203%203084%203875%202770%20%0AQ%203547%202456%203450%201953%20%0AL%203066%200%20%0AL%202491%200%20%0AL%202900%202094%20%0AQ%202925%202209%202937%202307%20%0AQ%202950%202406%202950%202484%20%0AQ%202950%202769%202794%202926%20%0AQ%202638%203084%202363%203084%20%0AQ%201938%203084%201609%202770%20%0AQ%201281%202456%201184%201953%20%0AL%20800%200%20%0AL%20225%200%20%0AL%20909%203500%20%0AL%201484%203500%20%0AL%201375%202956%20%0AQ%201609%203263%201923%203423%20%0AQ%202238%203584%202597%203584%20%0AQ%202978%203584%203223%203384%20%0AQ%203469%203184%203519%202828%20%0AQ%203781%203197%204126%203390%20%0AQ%204472%203584%204856%203584%20%0AQ%205306%203584%205551%203325%20%0AQ%205797%203066%205797%202591%20%0AQ%205797%202488%205784%202364%20%0AQ%205772%202241%205747%202113%20%0Az%0A%22%20transform%3D%22scale(0.015625)%22%2F%3E%0A%20%20%20%20%20%3C%2Fdefs%3E%0A%20%20%20%20%20%3Cuse%20xlink%3Ahref%3D%22%23DejaVuSans-Oblique-49%22%20transform%3D%22translate(0%200.09375)%22%2F%3E%0A%20%20%20%20%20%3Cuse%20xlink%3Ahref%3D%22%23DejaVuSans-Oblique-6d%22%20transform%3D%22translate(29.492188%200.09375)%22%2F%3E%0A%20%20%20%20%3C%2Fg%3E%0A%20%20%20%3C%2Fg%3E%0A%20%20%3C%2Fg%3E%0A%20%3C%2Fg%3E%0A%20%3Cdefs%3E%0A%20%20%3CclipPath%20id%3D%22p2ddb7c1072%22%3E%0A%20%20%20%3Crect%20x%3D%227.2%22%20y%3D%227.2%22%20width%3D%22266.112%22%20height%3D%22266.112%22%2F%3E%0A%20%20%3C%2FclipPath%3E%0A%20%3C%2Fdefs%3E%0A%3C%2Fsvg%3E;clipPath=inset(25.33% 20% 31.33% 24.67%);imageBorder=#7EA6E0;" vertex="1" parent="WIyWlLk6GJQsqaUBKTNV-1">
          <mxGeometry x="446.08000000000004" y="480" width="153.23" height="120" as="geometry" />
        </mxCell>
        <mxCell id="19jjWzB2dqfbjUOQzjkO-23" style="edgeStyle=none;rounded=0;orthogonalLoop=1;jettySize=auto;html=1;exitX=0.25;exitY=0;exitDx=0;exitDy=0;strokeColor=#7EA6E0;" edge="1" parent="WIyWlLk6GJQsqaUBKTNV-1" source="19jjWzB2dqfbjUOQzjkO-6">
          <mxGeometry relative="1" as="geometry">
            <mxPoint x="710" y="460" as="targetPoint" />
          </mxGeometry>
        </mxCell>
        <mxCell id="19jjWzB2dqfbjUOQzjkO-6" value="" style="shape=image;verticalLabelPosition=bottom;labelBackgroundColor=default;verticalAlign=top;aspect=fixed;imageAspect=0;image=data:image/svg+xml,%3C%3Fxml%20version%3D%221.0%22%20encoding%3D%22utf-8%22%20standalone%3D%22no%22%3F%3E%0A%3C!DOCTYPE%20svg%20PUBLIC%20%22-%2F%2FW3C%2F%2FDTD%20SVG%201.1%2F%2FEN%22%0A%20%20%22http%3A%2F%2Fwww.w3.org%2FGraphics%2FSVG%2F1.1%2FDTD%2Fsvg11.dtd%22%3E%0A%3Csvg%20xmlns%3Axlink%3D%22http%3A%2F%2Fwww.w3.org%2F1999%2Fxlink%22%20width%3D%22280.512pt%22%20height%3D%22280.512pt%22%20viewBox%3D%220%200%20280.512%20280.512%22%20xmlns%3D%22http%3A%2F%2Fwww.w3.org%2F2000%2Fsvg%22%20version%3D%221.1%22%3E%0A%20%3Cmetadata%3E%0A%20%20%3Crdf%3ARDF%20xmlns%3Adc%3D%22http%3A%2F%2Fpurl.org%2Fdc%2Felements%2F1.1%2F%22%20xmlns%3Acc%3D%22http%3A%2F%2Fcreativecommons.org%2Fns%23%22%20xmlns%3Ardf%3D%22http%3A%2F%2Fwww.w3.org%2F1999%2F02%2F22-rdf-syntax-ns%23%22%3E%0A%20%20%20%3Ccc%3AWork%3E%0A%20%20%20%20%3Cdc%3Atype%20rdf%3Aresource%3D%22http%3A%2F%2Fpurl.org%2Fdc%2Fdcmitype%2FStillImage%22%2F%3E%0A%20%20%20%20%3Cdc%3Adate%3E2024-02-03T16%3A49%3A39.141759%3C%2Fdc%3Adate%3E%0A%20%20%20%20%3Cdc%3Aformat%3Eimage%2Fsvg%2Bxml%3C%2Fdc%3Aformat%3E%0A%20%20%20%20%3Cdc%3Acreator%3E%0A%20%20%20%20%20%3Ccc%3AAgent%3E%0A%20%20%20%20%20%20%3Cdc%3Atitle%3EMatplotlib%20v3.8.0%2C%20https%3A%2F%2Fmatplotlib.org%2F%3C%2Fdc%3Atitle%3E%0A%20%20%20%20%20%3C%2Fcc%3AAgent%3E%0A%20%20%20%20%3C%2Fdc%3Acreator%3E%0A%20%20%20%3C%2Fcc%3AWork%3E%0A%20%20%3C%2Frdf%3ARDF%3E%0A%20%3C%2Fmetadata%3E%0A%20%3Cdefs%3E%0A%20%20%3Cstyle%20type%3D%22text%2Fcss%22%3E*%7Bstroke-linejoin%3A%20round%3B%20stroke-linecap%3A%20butt%7D%3C%2Fstyle%3E%0A%20%3C%2Fdefs%3E%0A%20%3Cg%20id%3D%22figure_1%22%3E%0A%20%20%3Cg%20id%3D%22patch_1%22%3E%0A%20%20%20%3Cpath%20d%3D%22M%200%20280.512%20%0AL%20280.512%20280.512%20%0AL%20280.512%200%20%0AL%200%200%20%0Az%0A%22%20style%3D%22fill%3A%20%23ffffff%22%2F%3E%0A%20%20%3C%2Fg%3E%0A%20%20%3Cg%20id%3D%22patch_2%22%3E%0A%20%20%20%3Cpath%20d%3D%22M%207.2%20273.312%20%0AL%20273.312%20273.312%20%0AL%20273.312%207.2%20%0AL%207.2%207.2%20%0Az%0A%22%20style%3D%22fill%3A%20%23ffffff%22%2F%3E%0A%20%20%3C%2Fg%3E%0A%20%20%3Cg%20id%3D%22axes_1%22%3E%0A%20%20%20%3Cg%20id%3D%22line2d_1%22%3E%0A%20%20%20%20%3Cpath%20d%3D%22M%2074.386458%20116.606886%20%0AL%20216.842635%20157.730442%20%0A%22%20clip-path%3D%22url(%23pe6ad319d32)%22%20style%3D%22fill%3A%20none%3B%20stroke%3A%20%23000000%3B%20stroke-width%3A%200.5%3B%20stroke-linecap%3A%20square%22%2F%3E%0A%20%20%20%3C%2Fg%3E%0A%20%20%20%3Cg%20id%3D%22line2d_2%22%3E%0A%20%20%20%20%3Cpath%20d%3D%22M%20100.913504%20173.845814%20%0AL%20183.261512%20102.530347%20%0A%22%20clip-path%3D%22url(%23pe6ad319d32)%22%20style%3D%22fill%3A%20none%3B%20stroke%3A%20%23000000%3B%20stroke-width%3A%200.5%3B%20stroke-linecap%3A%20square%22%2F%3E%0A%20%20%20%3C%2Fg%3E%0A%20%20%20%3Cg%20id%3D%22line2d_3%22%3E%0A%20%20%20%20%3Cpath%20d%3D%22M%20143.852108%20188.928216%20%0AL%20143.852108%2082.102444%20%0A%22%20clip-path%3D%22url(%23pe6ad319d32)%22%20style%3D%22fill%3A%20none%3B%20stroke%3A%20%23000000%3B%20stroke-width%3A%200.5%3B%20stroke-linecap%3A%20square%22%2F%3E%0A%20%20%20%3C%2Fg%3E%0A%20%20%20%3Cg%20id%3D%22line2d_4%22%3E%0A%20%20%20%20%3Cpath%20d%3D%22M%2074.386458%20116.606886%20%0AL%2079.820019%20118.17542%20%0AL%2090.560819%20109.795716%20%0AL%2096.38534%20122.957416%20%0AL%20135.335259%20134.201289%20%0AL%20125.119763%20143.108054%20%0AL%20162.298014%20130.31033%20%0AL%20152.419685%20139.133138%20%0AL%20193.149927%20150.992365%20%0AL%20200.829559%20165.382265%20%0AL%20210.867371%20156.005532%20%0AL%20216.692958%20157.687234%20%0AL%20216.692958%20157.687234%20%0A%22%20clip-path%3D%22url(%23pe6ad319d32)%22%20style%3D%22fill%3A%20none%3B%20stroke%3A%20%230000ff%3B%20stroke-width%3A%201.5%3B%20stroke-linecap%3A%20square%22%2F%3E%0A%20%20%20%3C%2Fg%3E%0A%20%20%20%3Cg%20id%3D%22text_1%22%3E%0A%20%20%20%20%3C!--%20%24f%24%20--%3E%0A%20%20%20%20%3Cg%20transform%3D%22translate(216.842635%20157.730442)%20scale(0.1%20-0.1)%22%3E%0A%20%20%20%20%20%3Cdefs%3E%0A%20%20%20%20%20%20%3Cpath%20id%3D%22DejaVuSans-Oblique-66%22%20d%3D%22M%203059%204863%20%0AL%202969%204384%20%0AL%202419%204384%20%0AQ%202106%204384%201964%204261%20%0AQ%201822%204138%201753%203809%20%0AL%201691%203500%20%0AL%202638%203500%20%0AL%202553%203053%20%0AL%201606%203053%20%0AL%201013%200%20%0AL%20434%200%20%0AL%201031%203053%20%0AL%20481%203053%20%0AL%20563%203500%20%0AL%201113%203500%20%0AL%201159%203744%20%0AQ%201278%204363%201576%204613%20%0AQ%201875%204863%202516%204863%20%0AL%203059%204863%20%0Az%0A%22%20transform%3D%22scale(0.015625)%22%2F%3E%0A%20%20%20%20%20%3C%2Fdefs%3E%0A%20%20%20%20%20%3Cuse%20xlink%3Ahref%3D%22%23DejaVuSans-Oblique-66%22%20transform%3D%22translate(0%200.015625)%22%2F%3E%0A%20%20%20%20%3C%2Fg%3E%0A%20%20%20%3C%2Fg%3E%0A%20%20%20%3Cg%20id%3D%22text_2%22%3E%0A%20%20%20%20%3C!--%20%24Re%24%20--%3E%0A%20%20%20%20%3Cg%20transform%3D%22translate(183.261512%20102.530347)%20scale(0.1%20-0.1)%22%3E%0A%20%20%20%20%20%3Cdefs%3E%0A%20%20%20%20%20%20%3Cpath%20id%3D%22DejaVuSans-Oblique-52%22%20d%3D%22M%201613%204147%20%0AL%201294%202491%20%0AL%202106%202491%20%0AQ%202584%202491%202879%202755%20%0AQ%203175%203019%203175%203444%20%0AQ%203175%203784%202976%203965%20%0AQ%202778%204147%202406%204147%20%0AL%201613%204147%20%0Az%0AM%202772%202241%20%0AQ%202972%202194%203105%202009%20%0AQ%203238%201825%203413%201275%20%0AL%203809%200%20%0AL%203144%200%20%0AL%202778%201197%20%0AQ%202638%201659%202453%201815%20%0AQ%202269%201972%201888%201972%20%0AL%201191%201972%20%0AL%20806%200%20%0AL%20172%200%20%0AL%201081%204666%20%0AL%202503%204666%20%0AQ%203150%204666%203495%204373%20%0AQ%203841%204081%203841%203531%20%0AQ%203841%203044%203547%202687%20%0AQ%203253%202331%202772%202241%20%0Az%0A%22%20transform%3D%22scale(0.015625)%22%2F%3E%0A%20%20%20%20%20%20%3Cpath%20id%3D%22DejaVuSans-Oblique-65%22%20d%3D%22M%203078%202063%20%0AQ%203088%202113%203092%202166%20%0AQ%203097%202219%203097%202272%20%0AQ%203097%202653%202873%202875%20%0AQ%202650%203097%202266%203097%20%0AQ%201838%203097%201509%202826%20%0AQ%201181%202556%201013%202059%20%0AL%203078%202063%20%0Az%0AM%203578%201613%20%0AL%20903%201613%20%0AQ%20884%201494%20878%201425%20%0AQ%20872%201356%20872%201306%20%0AQ%20872%20872%201139%20634%20%0AQ%201406%20397%201894%20397%20%0AQ%202269%20397%202603%20481%20%0AQ%202938%20566%203225%20728%20%0AL%203116%20159%20%0AQ%202806%2034%202476%20-28%20%0AQ%202147%20-91%201806%20-91%20%0AQ%201078%20-91%20686%20257%20%0AQ%20294%20606%20294%201247%20%0AQ%20294%201794%20489%202264%20%0AQ%20684%202734%201063%203103%20%0AQ%201306%203334%201642%203459%20%0AQ%201978%203584%202356%203584%20%0AQ%202950%203584%203301%203228%20%0AQ%203653%202872%203653%202272%20%0AQ%203653%202128%203634%201964%20%0AQ%203616%201800%203578%201613%20%0Az%0A%22%20transform%3D%22scale(0.015625)%22%2F%3E%0A%20%20%20%20%20%3C%2Fdefs%3E%0A%20%20%20%20%20%3Cuse%20xlink%3Ahref%3D%22%23DejaVuSans-Oblique-52%22%20transform%3D%22translate(0%200.09375)%22%2F%3E%0A%20%20%20%20%20%3Cuse%20xlink%3Ahref%3D%22%23DejaVuSans-Oblique-65%22%20transform%3D%22translate(69.482422%200.09375)%22%2F%3E%0A%20%20%20%20%3C%2Fg%3E%0A%20%20%20%3C%2Fg%3E%0A%20%20%20%3Cg%20id%3D%22text_3%22%3E%0A%20%20%20%20%3C!--%20%24Im%24%20--%3E%0A%20%20%20%20%3Cg%20transform%3D%22translate(143.852108%2082.102444)%20scale(0.1%20-0.1)%22%3E%0A%20%20%20%20%20%3Cdefs%3E%0A%20%20%20%20%20%20%3Cpath%20id%3D%22DejaVuSans-Oblique-49%22%20d%3D%22M%201081%204666%20%0AL%201716%204666%20%0AL%20806%200%20%0AL%20172%200%20%0AL%201081%204666%20%0Az%0A%22%20transform%3D%22scale(0.015625)%22%2F%3E%0A%20%20%20%20%20%20%3Cpath%20id%3D%22DejaVuSans-Oblique-6d%22%20d%3D%22M%205747%202113%20%0AL%205338%200%20%0AL%204763%200%20%0AL%205166%202094%20%0AQ%205191%202228%205203%202325%20%0AQ%205216%202422%205216%202491%20%0AQ%205216%202772%205059%202928%20%0AQ%204903%203084%204622%203084%20%0AQ%204203%203084%203875%202770%20%0AQ%203547%202456%203450%201953%20%0AL%203066%200%20%0AL%202491%200%20%0AL%202900%202094%20%0AQ%202925%202209%202937%202307%20%0AQ%202950%202406%202950%202484%20%0AQ%202950%202769%202794%202926%20%0AQ%202638%203084%202363%203084%20%0AQ%201938%203084%201609%202770%20%0AQ%201281%202456%201184%201953%20%0AL%20800%200%20%0AL%20225%200%20%0AL%20909%203500%20%0AL%201484%203500%20%0AL%201375%202956%20%0AQ%201609%203263%201923%203423%20%0AQ%202238%203584%202597%203584%20%0AQ%202978%203584%203223%203384%20%0AQ%203469%203184%203519%202828%20%0AQ%203781%203197%204126%203390%20%0AQ%204472%203584%204856%203584%20%0AQ%205306%203584%205551%203325%20%0AQ%205797%203066%205797%202591%20%0AQ%205797%202488%205784%202364%20%0AQ%205772%202241%205747%202113%20%0Az%0A%22%20transform%3D%22scale(0.015625)%22%2F%3E%0A%20%20%20%20%20%3C%2Fdefs%3E%0A%20%20%20%20%20%3Cuse%20xlink%3Ahref%3D%22%23DejaVuSans-Oblique-49%22%20transform%3D%22translate(0%200.09375)%22%2F%3E%0A%20%20%20%20%20%3Cuse%20xlink%3Ahref%3D%22%23DejaVuSans-Oblique-6d%22%20transform%3D%22translate(29.492188%200.09375)%22%2F%3E%0A%20%20%20%20%3C%2Fg%3E%0A%20%20%20%3C%2Fg%3E%0A%20%20%3C%2Fg%3E%0A%20%3C%2Fg%3E%0A%20%3Cdefs%3E%0A%20%20%3CclipPath%20id%3D%22pe6ad319d32%22%3E%0A%20%20%20%3Crect%20x%3D%227.2%22%20y%3D%227.2%22%20width%3D%22266.112%22%20height%3D%22266.112%22%2F%3E%0A%20%20%3C%2FclipPath%3E%0A%20%3C%2Fdefs%3E%0A%3C%2Fsvg%3E;clipPath=inset(26% 20.67% 32.33% 25.67%);imageBorder=#7EA6E0;" vertex="1" parent="WIyWlLk6GJQsqaUBKTNV-1">
          <mxGeometry x="700" y="520" width="154.56" height="120" as="geometry" />
        </mxCell>
        <mxCell id="19jjWzB2dqfbjUOQzjkO-22" style="edgeStyle=none;rounded=0;orthogonalLoop=1;jettySize=auto;html=1;exitX=0.25;exitY=1;exitDx=0;exitDy=0;strokeColor=#7EA6E0;" edge="1" parent="WIyWlLk6GJQsqaUBKTNV-1" source="19jjWzB2dqfbjUOQzjkO-7">
          <mxGeometry relative="1" as="geometry">
            <mxPoint x="790" y="380" as="targetPoint" />
          </mxGeometry>
        </mxCell>
        <mxCell id="19jjWzB2dqfbjUOQzjkO-7" value="" style="shape=image;verticalLabelPosition=bottom;labelBackgroundColor=default;verticalAlign=top;aspect=fixed;imageAspect=0;image=data:image/svg+xml,%3C%3Fxml%20version%3D%221.0%22%20encoding%3D%22utf-8%22%20standalone%3D%22no%22%3F%3E%0A%3C!DOCTYPE%20svg%20PUBLIC%20%22-%2F%2FW3C%2F%2FDTD%20SVG%201.1%2F%2FEN%22%0A%20%20%22http%3A%2F%2Fwww.w3.org%2FGraphics%2FSVG%2F1.1%2FDTD%2Fsvg11.dtd%22%3E%0A%3Csvg%20xmlns%3Axlink%3D%22http%3A%2F%2Fwww.w3.org%2F1999%2Fxlink%22%20width%3D%22280.512pt%22%20height%3D%22280.512pt%22%20viewBox%3D%220%200%20280.512%20280.512%22%20xmlns%3D%22http%3A%2F%2Fwww.w3.org%2F2000%2Fsvg%22%20version%3D%221.1%22%3E%0A%20%3Cmetadata%3E%0A%20%20%3Crdf%3ARDF%20xmlns%3Adc%3D%22http%3A%2F%2Fpurl.org%2Fdc%2Felements%2F1.1%2F%22%20xmlns%3Acc%3D%22http%3A%2F%2Fcreativecommons.org%2Fns%23%22%20xmlns%3Ardf%3D%22http%3A%2F%2Fwww.w3.org%2F1999%2F02%2F22-rdf-syntax-ns%23%22%3E%0A%20%20%20%3Ccc%3AWork%3E%0A%20%20%20%20%3Cdc%3Atype%20rdf%3Aresource%3D%22http%3A%2F%2Fpurl.org%2Fdc%2Fdcmitype%2FStillImage%22%2F%3E%0A%20%20%20%20%3Cdc%3Adate%3E2024-02-03T16%3A49%3A39.185622%3C%2Fdc%3Adate%3E%0A%20%20%20%20%3Cdc%3Aformat%3Eimage%2Fsvg%2Bxml%3C%2Fdc%3Aformat%3E%0A%20%20%20%20%3Cdc%3Acreator%3E%0A%20%20%20%20%20%3Ccc%3AAgent%3E%0A%20%20%20%20%20%20%3Cdc%3Atitle%3EMatplotlib%20v3.8.0%2C%20https%3A%2F%2Fmatplotlib.org%2F%3C%2Fdc%3Atitle%3E%0A%20%20%20%20%20%3C%2Fcc%3AAgent%3E%0A%20%20%20%20%3C%2Fdc%3Acreator%3E%0A%20%20%20%3C%2Fcc%3AWork%3E%0A%20%20%3C%2Frdf%3ARDF%3E%0A%20%3C%2Fmetadata%3E%0A%20%3Cdefs%3E%0A%20%20%3Cstyle%20type%3D%22text%2Fcss%22%3E*%7Bstroke-linejoin%3A%20round%3B%20stroke-linecap%3A%20butt%7D%3C%2Fstyle%3E%0A%20%3C%2Fdefs%3E%0A%20%3Cg%20id%3D%22figure_1%22%3E%0A%20%20%3Cg%20id%3D%22patch_1%22%3E%0A%20%20%20%3Cpath%20d%3D%22M%200%20280.512%20%0AL%20280.512%20280.512%20%0AL%20280.512%200%20%0AL%200%200%20%0Az%0A%22%20style%3D%22fill%3A%20%23ffffff%22%2F%3E%0A%20%20%3C%2Fg%3E%0A%20%20%3Cg%20id%3D%22patch_2%22%3E%0A%20%20%20%3Cpath%20d%3D%22M%207.2%20273.312%20%0AL%20273.312%20273.312%20%0AL%20273.312%207.2%20%0AL%207.2%207.2%20%0Az%0A%22%20style%3D%22fill%3A%20%23ffffff%22%2F%3E%0A%20%20%3C%2Fg%3E%0A%20%20%3Cg%20id%3D%22axes_1%22%3E%0A%20%20%20%3Cg%20id%3D%22line2d_1%22%3E%0A%20%20%20%20%3Cpath%20d%3D%22M%2074.386458%20116.606886%20%0AL%20216.842635%20157.730442%20%0A%22%20clip-path%3D%22url(%23p4db20c13c7)%22%20style%3D%22fill%3A%20none%3B%20stroke%3A%20%23000000%3B%20stroke-width%3A%200.5%3B%20stroke-linecap%3A%20square%22%2F%3E%0A%20%20%20%3C%2Fg%3E%0A%20%20%20%3Cg%20id%3D%22line2d_2%22%3E%0A%20%20%20%20%3Cpath%20d%3D%22M%20100.913504%20173.845814%20%0AL%20183.261512%20102.530347%20%0A%22%20clip-path%3D%22url(%23p4db20c13c7)%22%20style%3D%22fill%3A%20none%3B%20stroke%3A%20%23000000%3B%20stroke-width%3A%200.5%3B%20stroke-linecap%3A%20square%22%2F%3E%0A%20%20%20%3C%2Fg%3E%0A%20%20%20%3Cg%20id%3D%22line2d_3%22%3E%0A%20%20%20%20%3Cpath%20d%3D%22M%20143.852108%20188.928216%20%0AL%20143.852108%2082.102444%20%0A%22%20clip-path%3D%22url(%23p4db20c13c7)%22%20style%3D%22fill%3A%20none%3B%20stroke%3A%20%23000000%3B%20stroke-width%3A%200.5%3B%20stroke-linecap%3A%20square%22%2F%3E%0A%20%20%20%3C%2Fg%3E%0A%20%20%20%3Cg%20id%3D%22line2d_4%22%3E%0A%20%20%20%20%3Cpath%20d%3D%22M%2074.386458%20116.606886%20%0AL%2079.820019%20118.17542%20%0AL%20100.947874%20101.549501%20%0AL%2096.247637%20122.917665%20%0AL%20135.335259%20134.201289%20%0AL%20172.274992%20121.567911%20%0AL%20152.419685%20139.133138%20%0AL%20216.692958%20157.687234%20%0AL%20216.692958%20157.687234%20%0A%22%20clip-path%3D%22url(%23p4db20c13c7)%22%20style%3D%22fill%3A%20none%3B%20stroke%3A%20%230000ff%3B%20stroke-width%3A%201.5%3B%20stroke-linecap%3A%20square%22%2F%3E%0A%20%20%20%3C%2Fg%3E%0A%20%20%20%3Cg%20id%3D%22text_1%22%3E%0A%20%20%20%20%3C!--%20%24f%24%20--%3E%0A%20%20%20%20%3Cg%20transform%3D%22translate(216.842635%20157.730442)%20scale(0.1%20-0.1)%22%3E%0A%20%20%20%20%20%3Cdefs%3E%0A%20%20%20%20%20%20%3Cpath%20id%3D%22DejaVuSans-Oblique-66%22%20d%3D%22M%203059%204863%20%0AL%202969%204384%20%0AL%202419%204384%20%0AQ%202106%204384%201964%204261%20%0AQ%201822%204138%201753%203809%20%0AL%201691%203500%20%0AL%202638%203500%20%0AL%202553%203053%20%0AL%201606%203053%20%0AL%201013%200%20%0AL%20434%200%20%0AL%201031%203053%20%0AL%20481%203053%20%0AL%20563%203500%20%0AL%201113%203500%20%0AL%201159%203744%20%0AQ%201278%204363%201576%204613%20%0AQ%201875%204863%202516%204863%20%0AL%203059%204863%20%0Az%0A%22%20transform%3D%22scale(0.015625)%22%2F%3E%0A%20%20%20%20%20%3C%2Fdefs%3E%0A%20%20%20%20%20%3Cuse%20xlink%3Ahref%3D%22%23DejaVuSans-Oblique-66%22%20transform%3D%22translate(0%200.015625)%22%2F%3E%0A%20%20%20%20%3C%2Fg%3E%0A%20%20%20%3C%2Fg%3E%0A%20%20%20%3Cg%20id%3D%22text_2%22%3E%0A%20%20%20%20%3C!--%20%24Re%24%20--%3E%0A%20%20%20%20%3Cg%20transform%3D%22translate(183.261512%20102.530347)%20scale(0.1%20-0.1)%22%3E%0A%20%20%20%20%20%3Cdefs%3E%0A%20%20%20%20%20%20%3Cpath%20id%3D%22DejaVuSans-Oblique-52%22%20d%3D%22M%201613%204147%20%0AL%201294%202491%20%0AL%202106%202491%20%0AQ%202584%202491%202879%202755%20%0AQ%203175%203019%203175%203444%20%0AQ%203175%203784%202976%203965%20%0AQ%202778%204147%202406%204147%20%0AL%201613%204147%20%0Az%0AM%202772%202241%20%0AQ%202972%202194%203105%202009%20%0AQ%203238%201825%203413%201275%20%0AL%203809%200%20%0AL%203144%200%20%0AL%202778%201197%20%0AQ%202638%201659%202453%201815%20%0AQ%202269%201972%201888%201972%20%0AL%201191%201972%20%0AL%20806%200%20%0AL%20172%200%20%0AL%201081%204666%20%0AL%202503%204666%20%0AQ%203150%204666%203495%204373%20%0AQ%203841%204081%203841%203531%20%0AQ%203841%203044%203547%202687%20%0AQ%203253%202331%202772%202241%20%0Az%0A%22%20transform%3D%22scale(0.015625)%22%2F%3E%0A%20%20%20%20%20%20%3Cpath%20id%3D%22DejaVuSans-Oblique-65%22%20d%3D%22M%203078%202063%20%0AQ%203088%202113%203092%202166%20%0AQ%203097%202219%203097%202272%20%0AQ%203097%202653%202873%202875%20%0AQ%202650%203097%202266%203097%20%0AQ%201838%203097%201509%202826%20%0AQ%201181%202556%201013%202059%20%0AL%203078%202063%20%0Az%0AM%203578%201613%20%0AL%20903%201613%20%0AQ%20884%201494%20878%201425%20%0AQ%20872%201356%20872%201306%20%0AQ%20872%20872%201139%20634%20%0AQ%201406%20397%201894%20397%20%0AQ%202269%20397%202603%20481%20%0AQ%202938%20566%203225%20728%20%0AL%203116%20159%20%0AQ%202806%2034%202476%20-28%20%0AQ%202147%20-91%201806%20-91%20%0AQ%201078%20-91%20686%20257%20%0AQ%20294%20606%20294%201247%20%0AQ%20294%201794%20489%202264%20%0AQ%20684%202734%201063%203103%20%0AQ%201306%203334%201642%203459%20%0AQ%201978%203584%202356%203584%20%0AQ%202950%203584%203301%203228%20%0AQ%203653%202872%203653%202272%20%0AQ%203653%202128%203634%201964%20%0AQ%203616%201800%203578%201613%20%0Az%0A%22%20transform%3D%22scale(0.015625)%22%2F%3E%0A%20%20%20%20%20%3C%2Fdefs%3E%0A%20%20%20%20%20%3Cuse%20xlink%3Ahref%3D%22%23DejaVuSans-Oblique-52%22%20transform%3D%22translate(0%200.09375)%22%2F%3E%0A%20%20%20%20%20%3Cuse%20xlink%3Ahref%3D%22%23DejaVuSans-Oblique-65%22%20transform%3D%22translate(69.482422%200.09375)%22%2F%3E%0A%20%20%20%20%3C%2Fg%3E%0A%20%20%20%3C%2Fg%3E%0A%20%20%20%3Cg%20id%3D%22text_3%22%3E%0A%20%20%20%20%3C!--%20%24Im%24%20--%3E%0A%20%20%20%20%3Cg%20transform%3D%22translate(143.852108%2082.102444)%20scale(0.1%20-0.1)%22%3E%0A%20%20%20%20%20%3Cdefs%3E%0A%20%20%20%20%20%20%3Cpath%20id%3D%22DejaVuSans-Oblique-49%22%20d%3D%22M%201081%204666%20%0AL%201716%204666%20%0AL%20806%200%20%0AL%20172%200%20%0AL%201081%204666%20%0Az%0A%22%20transform%3D%22scale(0.015625)%22%2F%3E%0A%20%20%20%20%20%20%3Cpath%20id%3D%22DejaVuSans-Oblique-6d%22%20d%3D%22M%205747%202113%20%0AL%205338%200%20%0AL%204763%200%20%0AL%205166%202094%20%0AQ%205191%202228%205203%202325%20%0AQ%205216%202422%205216%202491%20%0AQ%205216%202772%205059%202928%20%0AQ%204903%203084%204622%203084%20%0AQ%204203%203084%203875%202770%20%0AQ%203547%202456%203450%201953%20%0AL%203066%200%20%0AL%202491%200%20%0AL%202900%202094%20%0AQ%202925%202209%202937%202307%20%0AQ%202950%202406%202950%202484%20%0AQ%202950%202769%202794%202926%20%0AQ%202638%203084%202363%203084%20%0AQ%201938%203084%201609%202770%20%0AQ%201281%202456%201184%201953%20%0AL%20800%200%20%0AL%20225%200%20%0AL%20909%203500%20%0AL%201484%203500%20%0AL%201375%202956%20%0AQ%201609%203263%201923%203423%20%0AQ%202238%203584%202597%203584%20%0AQ%202978%203584%203223%203384%20%0AQ%203469%203184%203519%202828%20%0AQ%203781%203197%204126%203390%20%0AQ%204472%203584%204856%203584%20%0AQ%205306%203584%205551%203325%20%0AQ%205797%203066%205797%202591%20%0AQ%205797%202488%205784%202364%20%0AQ%205772%202241%205747%202113%20%0Az%0A%22%20transform%3D%22scale(0.015625)%22%2F%3E%0A%20%20%20%20%20%3C%2Fdefs%3E%0A%20%20%20%20%20%3Cuse%20xlink%3Ahref%3D%22%23DejaVuSans-Oblique-49%22%20transform%3D%22translate(0%200.09375)%22%2F%3E%0A%20%20%20%20%20%3Cuse%20xlink%3Ahref%3D%22%23DejaVuSans-Oblique-6d%22%20transform%3D%22translate(29.492188%200.09375)%22%2F%3E%0A%20%20%20%20%3C%2Fg%3E%0A%20%20%20%3C%2Fg%3E%0A%20%20%3C%2Fg%3E%0A%20%3C%2Fg%3E%0A%20%3Cdefs%3E%0A%20%20%3CclipPath%20id%3D%22p4db20c13c7%22%3E%0A%20%20%20%3Crect%20x%3D%227.2%22%20y%3D%227.2%22%20width%3D%22266.112%22%20height%3D%22266.112%22%2F%3E%0A%20%20%3C%2FclipPath%3E%0A%20%3C%2Fdefs%3E%0A%3C%2Fsvg%3E;clipPath=inset(25.67% 20.33% 32.33% 25.33%);imageBorder=#7EA6E0;" vertex="1" parent="WIyWlLk6GJQsqaUBKTNV-1">
          <mxGeometry x="800" y="220" width="155.24" height="120" as="geometry" />
        </mxCell>
        <mxCell id="19jjWzB2dqfbjUOQzjkO-15" style="edgeStyle=none;rounded=0;orthogonalLoop=1;jettySize=auto;html=1;exitX=0;exitY=0.5;exitDx=0;exitDy=0;startArrow=classic;startFill=1;endArrow=none;endFill=0;" edge="1" parent="WIyWlLk6GJQsqaUBKTNV-1" source="19jjWzB2dqfbjUOQzjkO-14">
          <mxGeometry relative="1" as="geometry">
            <mxPoint x="600" y="460" as="targetPoint" />
          </mxGeometry>
        </mxCell>
        <mxCell id="19jjWzB2dqfbjUOQzjkO-16" value="j" style="edgeStyle=none;rounded=0;orthogonalLoop=1;jettySize=auto;html=1;exitX=0.5;exitY=0;exitDx=0;exitDy=0;startArrow=classic;startFill=1;endArrow=none;endFill=0;" edge="1" parent="WIyWlLk6GJQsqaUBKTNV-1" source="19jjWzB2dqfbjUOQzjkO-14">
          <mxGeometry x="1" y="10" relative="1" as="geometry">
            <mxPoint x="660" y="400" as="targetPoint" />
            <mxPoint x="10" y="-10" as="offset" />
          </mxGeometry>
        </mxCell>
        <mxCell id="19jjWzB2dqfbjUOQzjkO-14" value="" style="shape=sumEllipse;perimeter=ellipsePerimeter;whiteSpace=wrap;html=1;backgroundOutline=1;" vertex="1" parent="WIyWlLk6GJQsqaUBKTNV-1">
          <mxGeometry x="640" y="440" width="40" height="40" as="geometry" />
        </mxCell>
        <mxCell id="19jjWzB2dqfbjUOQzjkO-20" style="edgeStyle=orthogonalEdgeStyle;rounded=0;orthogonalLoop=1;jettySize=auto;html=1;exitX=0.5;exitY=0;exitDx=0;exitDy=0;exitPerimeter=0;startArrow=classic;startFill=1;endArrow=none;endFill=0;" edge="1" parent="WIyWlLk6GJQsqaUBKTNV-1" source="19jjWzB2dqfbjUOQzjkO-18">
          <mxGeometry relative="1" as="geometry">
            <mxPoint x="600" y="300" as="targetPoint" />
            <Array as="points">
              <mxPoint x="740" y="300" />
            </Array>
          </mxGeometry>
        </mxCell>
        <mxCell id="19jjWzB2dqfbjUOQzjkO-21" style="edgeStyle=none;rounded=0;orthogonalLoop=1;jettySize=auto;html=1;exitX=1;exitY=0.5;exitDx=0;exitDy=0;exitPerimeter=0;" edge="1" parent="WIyWlLk6GJQsqaUBKTNV-1" source="19jjWzB2dqfbjUOQzjkO-18">
          <mxGeometry relative="1" as="geometry">
            <mxPoint x="840" y="380" as="targetPoint" />
          </mxGeometry>
        </mxCell>
        <mxCell id="19jjWzB2dqfbjUOQzjkO-18" value="" style="verticalLabelPosition=bottom;shadow=0;dashed=0;align=center;html=1;verticalAlign=top;shape=mxgraph.electrical.abstract.summation_point;" vertex="1" parent="WIyWlLk6GJQsqaUBKTNV-1">
          <mxGeometry x="720" y="360" width="40" height="40" as="geometry" />
        </mxCell>
        <mxCell id="19jjWzB2dqfbjUOQzjkO-19" style="edgeStyle=orthogonalEdgeStyle;rounded=0;orthogonalLoop=1;jettySize=auto;html=1;exitX=1;exitY=0.5;exitDx=0;exitDy=0;entryX=0.5;entryY=1;entryDx=0;entryDy=0;entryPerimeter=0;" edge="1" parent="WIyWlLk6GJQsqaUBKTNV-1" source="19jjWzB2dqfbjUOQzjkO-14" target="19jjWzB2dqfbjUOQzjkO-18">
          <mxGeometry relative="1" as="geometry" />
        </mxCell>
      </root>
    </mxGraphModel>
  </diagram>
</mxfile>
